/* XPM */
static char *_749d5ed38744806df8223891fa56964[] = {
/* columns rows colors chars-per-pixel */
"78 39 88 1 ",
"  c #020002",
". c #0A0002",
"X c #0F0806",
"o c #030109",
"O c #170702",
"+ c #190702",
"@ c #160803",
"# c #1A0801",
"$ c #1E1009",
"% c #2D1506",
"& c #2C1806",
"* c #261509",
"= c #2C150A",
"- c #26190B",
"; c #2B190A",
": c #311305",
"> c #30160F",
", c #241610",
"< c #2C1B10",
"1 c #7F501F",
"2 c #6C452A",
"3 c #6C4A2A",
"4 c #7E4E23",
"5 c #834F1D",
"6 c #83501E",
"7 c #8D561E",
"8 c #8E5C1D",
"9 c #935C1F",
"0 c #A3641C",
"q c #B36C14",
"w c #BE7316",
"e c #8C5620",
"r c #83522E",
"t c #935B20",
"y c #925F2C",
"u c #8F602E",
"i c #9F6423",
"p c #9B6428",
"a c #996832",
"s c #A26323",
"d c #A66E24",
"f c #AB6B27",
"g c #A1652A",
"h c #A66D29",
"j c #A96C2B",
"k c #B67329",
"l c #A46C3D",
"z c #CE6F01",
"x c #C96F0B",
"c c #D16F02",
"v c #C77205",
"b c #CC7101",
"n c #C5730A",
"m c #C9720A",
"M c #D37302",
"N c #D97703",
"B c #D67905",
"V c #DD7A02",
"C c #D67A09",
"Z c #DB7D0A",
"A c #C37616",
"S c #C67916",
"D c #CC7C16",
"F c #C47518",
"G c #CA771D",
"H c #C67C1C",
"J c #CC7A1A",
"K c #E27C01",
"L c #EA7F04",
"P c #E27E09",
"I c #C37C22",
"U c #CA7A21",
"Y c #C77928",
"T c #AA7740",
"R c #DD810A",
"E c #E68102",
"W c #E88101",
"Q c #E58209",
"! c #E38F1C",
"~ c #D58326",
"^ c #DA8526",
"/ c #DF8B26",
"( c #DD8E29",
") c #CC8531",
"_ c #C9813D",
"` c #E28C23",
"' c #E48C28",
"] c #E09741",
/* pixels */
"  oo         .  .         .    . . oooo     oo   o      o                o    ",
"  o     .            . .                  .             oo                    ",
"           . .                               o  ..X                 .         ",
"   X,<;-;;;;;;;;;;;;;;;;;;;;;-&&&;>>;;;;<--;;---;;&;*,-&;*%**%*****&****-,X.  ",
"   *a)U~D~JJD~DDDDDD~RD~RH~SDDSAFFFFSAAAFFFFFFFwqqqqqqqqqqqqqqqqqqqqqqqqky;   ",
"o  %j'QQEQQQQQQEQQQQRREQQQQQQRRRZRZZRZRZZZZZZZZCbbvmSmxxbvvvvbmmmmvbmbmxUg% o ",
"   %h`QQQEQEEEEEEREEREEEEEQEEQRVBVBVBVVZVKNPCCNNbbmmvvvvbmbvbmbbbvmbbvmxUi%   ",
"   %j'QQEEEEEEEEEEEEEEWEEEEEEQVVVVVKVVVVVVVVVVPNMbbbbbzbbbbbbbbbzbzbbbbxGi%  o",
"   %f`QEEEWWWWWWWWWWWWWWELELELKKVVKVVVKKVVKKKVKNcccbbbbbbbcbzbzbbzbbzbbvJs%   ",
"  .%f`LEWEEWEEWEWEEEWEWWEELLELKVKVKVKVVVVVVVVVNNccbbbbbbbbbbbzbzzbzbzbbvG0%   ",
"  .:f`LEEEEEEEEEEEWWEEEEWWEEELKVVVVVKVKVVNVNNZZNbbbbbbbbbbbbzbbzbzbbbbczJs%   ",
"   :f`LEEEEEEEEEEEWWEEEEEWEEEEKVVVVVVVBNNNNNCMCMbbbbbbbbbbbbmbbbbbbbbbbmG0% o ",
"   %j`EEWWWWWWWWWWWWWEEEWWWEEEVVVVVVVVVcczbbbbbbbbbbzbbzbbbbbbbbbbbbbbbmJs:   ",
"   %j`QEWWWWWWWWWWWWWEEWWWWLELKVVVKVVVVMzzzbzbbbcbbzbzzbbbbbbbbbbbbbbbbmGs%   ",
"   :j`QWWWWWWWWWWWWWWWWWWWLWEEKKKVVVVVNMzbbbbzbbcbcbcbbbzbbbbbbbbbbbbbbxGs%   ",
"  .:j`WWWWWWWWWWWWWWWWWWWWWEELKVVVVVVVZccbbbbbbbbbbbbbbbbbbbbbbbbbbbbbbxGs%   ",
"  .:d/ELWWWWWWEWEWWWWWWWEELEEEKVVVVVVVBMcbbbbbbbbbbbbbbbbbbbbbbbbbbbbbbvGs%   ",
"  .:h`LEWWWWWWWEWWWEEWWWEEEEELKKKVVVVVVMccbbbcbbbbbbbbbbbbbbbbbbbbbbbbbvGs%   ",
"   :d`ELWWWWWWWWWWWWEEWWLLKLELVVVVVVVZBMcMbbbbbcbbMbbbbbbbbbbbbbbbbbbbbmFs%   ",
"  .:d/LEWWWWEWEEWEWWWEEEKKKKKKVVVVVVKVVVBBVBMVBMcbbbbbbbbbbbbbbbbbbbbbbvGs%   ",
"  .:h/EEWWWWWWWWWWWEWQKKVVVVVVVVKVVVVVVVVVVVVZBCbbbbbbbbbbbbbbbbbbbbbbbvGs%   ",
"  .:h`ELWWWWWWWWEWWWWEVVVVKVVVVVVVVVVVVVVVVVVVVCMcbbbbbbbbbbbbbbbbbbbbbvGs%   ",
"  .:d/ELWWWWWWWWWWEELLKVKVVVVVVEVVKVVVVVVVVVVVBVbbbbbbbbbbbbbbbbbbbbbbbvGs=   ",
"  .:h`LEWWWWWWWWWWEEEKVVVVVVVVVVVVVVVVVVVVVVVVVNcbbbbbbbbbMbbbbbbbbbbbbvGs%   ",
"   :h`ELEEEWWWWWEWWWWLKVVVVVKVVVKVVVVVVVVVVVVVVVccbbbbbbcbbbbMbbbbbbbbbvGs*   ",
"  .%d!EELELWWWWWWWWWEQVVVVVVVVVEKVVKVKVVVVVVVVZCMbbbbbbbbbbbbbbbbbbbbMzmFs=   ",
"oo :d!ELWWWWWWWWWWWWWQEEKVKKVVVVVVVVKVVVVVBVBCCCbbbMbbbMbcbbcbbbbbMbbbMxGi*oo ",
"...:f'ELWWWWWWQWWWWWEEEWEKLLKLKVVVVVVVVcMcbMMbMbbbbbbbbbbbbbbbbbbbbbbMcbD0%.. ",
".o.:f`PWWWWWWWWWWWWWWWWWEEWWWWKVKVVVVVVcMMbbcbbbbczzbbbbbbbbbbbbbbbbbbbvH0:.. ",
"...:j`QQWWWWWQWWWWEEWWWWWWWWWWKKVVVVVVVcbbbbbbbbbbzbbbbbbbbbbccbbbbbbbvnHi:.. ",
"   %h(RQQEEEEEEEQEEWWWWWWEWEWEEVVVVRVRBcbbbbbbbvbbbbbbvbbbbbbbbbbbvbbvvnIp% o ",
"o  &h(QEWEEEEEEEEEEWWEEEEEEEEQLVVVVVBCVbbbvvvbbbvvbbvbbbbbbbvvbbvbbbbbbnIp*. .",
"   ;j'QWQLQLLPEQLQPLPQQQEQQQQQPBVCVZZMCbvvvvvzvvzvzmmbbvmbmbbmbbmbvmbbcxUp>.  ",
"o..<T]`!`''''''''''''`'`''''''^^^^^^^^^UUUUYUUUUUUUUUGGUUJUUGUUUUUGUGGJY_l<.  ",
"o. $3ut899tttt99ttt9t9t9t9tttt877eeeeee666666555555555565555555555555514r2$. .",
" .oX@#@X#####+########+#####@@@@#####++#+@@@O+OOOOO+@#@#@@OOOOO@OOOO@@X@#@oo  ",
".ooo . o                                             .  oo     o   o    ..o  o",
"                                 ..o o    .         .   o                     ",
"                                 oooooo.    ooo       .                       "
};
