/* XPM */
static char *_77fbc16c7164cb4d3ab100cacf3e270[] = {
/* columns rows colors chars-per-pixel */
"204 37 106 2 ",
"   c #000000",
".  c #090907",
"X  c #060608",
"o  c #0C0C0C",
"O  c #10110F",
"+  c #110F10",
"@  c #131414",
"#  c #161618",
"$  c #171918",
"%  c #1B1B1B",
"&  c #252525",
"*  c #2B2B2B",
"=  c #2E302F",
"-  c #2F3130",
";  c #333333",
":  c #383836",
">  c #3C3C3C",
",  c #41413F",
"<  c #444444",
"1  c #4B4B4B",
"2  c #545453",
"3  c #585856",
"4  c #575759",
"5  c #5B5B5C",
"6  c #646464",
"7  c #686866",
"8  c #6B6B6B",
"9  c #747474",
"0  c #7C7B7B",
"q  c #7F8180",
"w  c #739FDF",
"e  c #6FA6DF",
"r  c #6DACDE",
"t  c #72A3DF",
"y  c #63BDD6",
"u  c #67B6DB",
"i  c #69B2DC",
"p  c #64BCD9",
"a  c #68B8DB",
"s  c #7B8EE6",
"d  c #7D8EE8",
"f  c #7797E4",
"g  c #7993E6",
"h  c #759BE3",
"j  c #7898E5",
"k  c #7697E8",
"l  c #7A93E8",
"z  c #6FA6E1",
"x  c #6DABE0",
"c  c #72A1E1",
"v  c #70A9E0",
"b  c #55D7CF",
"n  c #53DDCF",
"m  c #5FC5D5",
"M  c #5CCCD5",
"N  c #5FC4D8",
"B  c #5EC8D8",
"V  c #56D6D2",
"C  c #59D3D2",
"Z  c #55DAD1",
"A  c #58DAD2",
"S  c #61C4D6",
"D  c #61C2D9",
"F  c #4AEFC7",
"G  c #4EE6CC",
"H  c #4CEBCB",
"J  c #51E3CD",
"K  c #50E9CD",
"L  c #47F2C8",
"P  c #4AF0CA",
"I  c #52E1D0",
"U  c #838383",
"Y  c #898987",
"T  c #878988",
"R  c #8C8C8C",
"E  c #8F8F91",
"W  c #949494",
"Q  c #9C9C9C",
"!  c #A3A3A3",
"~  c #A6A6A8",
"^  c #ABABAB",
"/  c #B0AEAF",
"(  c #B1B1AF",
")  c #B2B3B3",
"_  c #B8B8B6",
"`  c #BCBCBC",
"'  c gray77",
"]  c #C6C8C7",
"[  c #C6C6C8",
"{  c #CDCCCC",
"}  c #D1CFD0",
"|  c #D4D4D4",
" . c #DBDBDB",
".. c #E0E0DE",
"X. c #DFDFE1",
"o. c #E1DFE0",
"O. c #E4E4E4",
"+. c #E8E6E7",
"@. c #E8E8E6",
"#. c #E6E6E8",
"$. c #ECECEC",
"%. c #F4F4F3",
"&. c #F9F9F7",
"*. c #F6F6F8",
"=. c #F7F9F8",
"-. c #FFFFFF",
/* pixels */
"-.-.-.-.-.-.-.-.-.> % % % % $ $ % % % $ % % % % % % % % % % % % % % % % % * 0 $.-.-.-.-.-.-.-.-.-.-.-.-.-.-.-.-. .O % % % % $ % $ % % % $ $ % % % % ; ..-.-.-.-.-.-.-.-.-.-.-.-.-.# % % % % % % % % % % % % % % @ X Q o % % $ % % $ % % % % % % % % + ; =.-.-.-.-.-.-.-.-.^ 1 % % % % % $ % % % % % % % % % % % $ % % % % : ! -.-.-.-.-.-.-.-.Q O % % % % % % % % % % % % % % % % $ % % $ % % % % $ % % % % % % o * %.-.",
"-.-.-.-.-.-.-.-.$.; P F H H H H P P P P F F H F F F P P P P H F P P H P H #.0 & } -.-.-.-.-.-.-.-.-.-.-.-.-.-.-.> ~ L H L L P P P P P P H L P P P P L @ ) -.-.-.-.-.-.-.-.-.-.-.' 5 P H L H L H H L P P P H P P W     Q P P P P P P P P L H P L P L <   < %.-.-.-.-.-.{ ; 5 { -.P L H L P P P P P P P P P P P P P F P P P { , 4 -.-.-.-.-.-.-.' 7 H P P P P P P P L P L P H P P P L P P P P P P P P P P P P P P 4   : $.",
"-.-.-.-.-.-.-.-.! 0 H H H P L H P K H H H F H F H H H H H P H P H P P H H L H ! & $.-.-.-.-.-.-.-.-.-.-.-.-.-.W 1 H L H H H H H P H P H L H H H H P H     9 -.-.-.-.-.-.-.-.-.-.0 ~ H P L H L H H L H P H L P H <     O.H P H H H P P P H L H H H *.X     > %.-.-.-.E = } P P P P L H L P P H L H H P P P P P H H P H H H P -.1 0 -.-.-.-.-.-.$.; P P P H L H P H P L H P P P P H P P P P F H F H P P P H F P -.@     ; ",
"-.-.-.-.-.-.-.-.4 ' H F H H H H H H H H H H H G H H H K H H H H H H H H H H H H 2 = $.-.-.-.-.-.-.-.-.-.-.-.#.% X.H H H H H H H H P H H H H H H H H H       -.-.-.-.-.-.-.-.-.-.; $.H H H H H H H H H H H H H *.o   = H H H H F H H H H H P H H H )       O =.-.-.U < %.H H H H P H H H H H H H H P H H H H H P H H F H H H H @.X R -.-.-.-.-.-.$ H H H P H H H H H H H H H H H H P H H H H H F P H H H H K F '       X ",
"-.-.-.-.-.-.-.-.& &.K K H H H H H H F G H H H H H H H H H H H H K H H H G H H H [   * $.-.-.-.-.-.-.-.-.-.-.1 R H G H H K H H H K K H K F G H K H H K       -.-.-.-.-.-.-.-.-.#.> H K H G F H H H H G H H H H )     0 H H H H H H H H H H H H H K 7       2 -.-.! : &.K H K H K K H H H H H H K H H H G H G H H H H H F K G H H 4   R -.-.-.-. .& H H H H H G H K F G H H H H H H H F G F H H K H H H K H H H 9       > ",
"-.-.-.-.-.-.-.' 4 K G K G G G G K K G G G G H K G K G K K K K K H K G G G H K K %.    2 -.-.-.-.-.-.-.-.-.^ ; -.H K H G G H G K K K G K H G H K G K G       -.-.-.-.-.-.-.-.-.Q U K H K G G H G G G H H H H K 8     ' G G K G K K K G H G G H K K %       Q -.O.% O.H G F H H G H G G H H G G K H G H H K K P G H G G G F F H K U     ' -.-.-.R 6 G H H K H H K G F K H H H G H H K G H K K G F G K H G H H K =       R ",
"-.-.-.-.-.-.-.0 Q K G G G G J J K J J H K K J G G G K G J J K J K K G K G K K J %.      | -.-.-.-.-.-.-.$.% { K J G G G G G G G G G G G G G G G G H K       -.-.-.-.-.-.-.-.-.2 { G G G G K G G G G G H G G G &   @ -.G G G G G H J G K G J H G |         #.-.8 R G G G G G G G G H G G G G G G G G G H K H G G K H G G G G G G 0     1 -.-.-.< ^ G G K K K G G K K K G G K G K K H G G K K G G G H G K K K O.        | ",
"-.-.-.-.-.-.-.= #.G G G J G G G J K G J G J J J G J J J J K K K J J J J G G J J _       Q -.-.-.-.-.-.-.5 9 K K K K G G G G J K G G G G G G K J G G K       -.-.-.-.-.-.-.-.=.& =.K K G G G G G G G G G G J  .    2 G G J G G J G G J K G G G G R       ; -.-.% $.G G G G G G K J G G G G G G K G G G G J J K J G J J G G G G G <     O -.-.%.O $.G G G G G G G G G G G G G G G J K G J G G G G G G K K G K W       & -.",
"-.-.-.-.-.-.O.; J J J J n G n G J J I J n K J J J J K J J G J I J J J J J J J G 9       U -.-.-.-.-.-._ & %.K J J J J J J K J J K J J J J J J K J J J       -.-.-.-.-.-.-.-.` 6 G J J J J J J J G J I G G K E     Q K J J J J G J J J J G G I J <       0 -. .* J J I I K J J G J J J G G J G J J J G G J G J G G G J I J J G O.X       =.-./ , J J J G G G J G J G J G J K J G J J J J J J J J G G J J K J 1       8 -.",
"-.-.-.-.-.-.Q 0 J n J J I J n G I I J I I n J J n J I J n I J I I I I J n J I I &       W -.-.-.-.-.%.& _ I n I I J n J J n n J n I I I K I n I J J J       -.-.-.-.-.-.-.-.9 ^ I J I J J J I I J J J I I J <     +.J J J J J J J J J I J I J %.X       { -.~ 6 K I J I J J J J J G n J G J J J J J J J J n J n I J J J J J J 5       @ -.-.7 R J J J J J J n n J J I G J n J J J J J J J J J J J J J J I =.O       _ -.",
"-.-.-.-.-.-.1 ' n n n n n I I I n n n I n n n I n J n n n J n n n I n I J J n  .         .-.-.-.-.-.9 5 I n I I J n J n J J n K n J I I n I I n n I I       -.-.-.-.-.-.-.-.= $.n I I J n I I I J n n n n %.o   ; J I n J J J n n J J J n J J ^       # -.-.8 ! I n I I J J n J J n J J n n J n J J n J J J J J J I I I n I U         < -.-.% | J n J J J J J J I I J n J J J n n J J J J J I J I n J J J _       O =.-.",
"-.-.-.-.-.=.% -.n n n n n n n n n n n I n O.    < n n I n n n J I n n n n Z n W       * -.-.-.-.-.{ # $.n n n n n I n n n n n n n n n n n n n n n n n       -.-.-.-.-.-.-.O.> n n n n n n n I n n I n n n )     0 I n n n n n n n n n n n n n 6       5 -.-.< { I Z I I n n n n n n n n ' 1       1 n n I n n n I n n I =.9           Q -.} % n n J n n J n n n I n n J n '                         % 6  .8       1 -.-.",
"-.-.-.-.-._ 4 b n n n n Z Z n Z n Z n n b Q     E Z Z Z Z Z Z Z b n n n n Z Z 1       9 -.-.-.-.=.= ! b n n n n Z n I n n n n n n n n n n n n n n b n       -.-.-.-.-.-.-.Q Y n n n n n n n n n n b n Z n 7     ' Z n n b n n Z Z n n n n n n %       ^ -.-.& $.I n Z A n I Z I n Z n n n n | 6 X 0 n Z n n b n n n n  .:           : =.-.T 7 n Z n Z Z b Z n n n n Z n n 9                             X O       Q -.-.",
"-.-.-.-.-.8 ! Z b n V Z Z n Z Z Z Z Z A n 2     | n n Z Z n b n Z Z b n n Z =.o       ` -.-.-.-.U < n b n b b b Z Z b b Z b b b b Z Z Z b b n A n Z Z       -.-.-.-.-.-.-.1 } n n n A b n b A b n n Z Z Z &   + =.n Z b n b Z Z Z Z Z Z Z Z }       X $.-.-.$ -.Z Z n n V Z Z Z n Z Z n b Z n A #.X.Z Z n Z Z Z b $.0 o           % O.-.-.> ) Z Z n n n n b Z Z Z n Z n b 2 * & & * * & & &                       #.-.-.",
"-.-.-.-.-.& #.Z b b b V V V b b V b V Z -.O   & V Z V Z V b Z b b b b b b Z _       O =.-.-.-.| o  .A V Z V V A Z Z V V Z Z A b b V Z Z b A b A Z V b       -.-.-.-.-.-.&.& &.A n A V n V A A A Z Z V V |     4 V Z V A A A Z Z Z V Z Z n A T       > -.-.-.# Z V Z Z Z Z V Z Z V A V Z Z Z Z V Z Z b Z Z Z -.{ 8 +             * O.-.-.%.o %.Z Z Z Z V V Z Z Z b A Z b b n b Z Z Z Z b Z |     < E E E 0 <     ; -.-.-.",
"-.-.-.-. .; C C V C C C V C C C C C C C [     7 C C C C V C C C C C C C C C 9       2 -.-.-.-.: Y C V C C V V C C C C V V C C C V C C C C C C V C V V       -.-.-.-.-.-._ 6 V C C V C C V V C V V C V V R     ! V V V V A V C V V V V V C V :       R -.-.-.# -.V A V V V Z V V V V Z V Z V V Z V V Z b V Z  .5               7 %.-.-.-.~ 1 V Z V V V V b V Z Z Z A A V V A V A Z b Z V Z R       ~ -.-.-.-.O.5 0 -.-.-.",
"-.-.-.-.E 0 B M M B m M B B M B B B M B 0     / B M B M M B M M M M M M M M &       ! -.-.-.W = =.m M M M M M M M M M M M C M M M M M M M M M M C M M       -.-.-.-.-.-.9 ^ M M M M C C M M C M M M M M <     @.M C C M C M C M M C M M C $.X       | -.-.-.;  .M C M C M C C C M C C M C M C C C M M C M M M C  .7 X     & _ -.-.-.-.-.6 E C C C C C C C C C C C C C C C C M C M C C C C >       R -.-.-.-.-.-.=.-.-.-.",
"-.-.-.-.< ] S S D S m S S S S N S S S S m y S S S S N N N N N N S S S D N X.        #.-.-.O.+ { S S m m S m m S S N S S N { N N N S m m m m m m S N N       -.-.-.-.-.-.* $.m m N N N S m S S m M M S %.X   ; N S S S B B m m N S N S M N ^       % -.-.-.-.6 T m m B m B B m S S m m m B B B B M B B N M M B B B N { + R &.-.-.-.-.-.-.# | B S m m m m B m m m m m M S S M S M M B M m %.X       { -.-.-.-.-.-.-.-.-.-.",
"-.-.-.%.% &.p a a a u p p p a a a y p a u p p a a p a y y a p p a a p p p W       ; -.-.-.1 9 p p a p p p p a p p p p p -.; y y p p p p y y y y y p p       -.-.-.-.-. .< p D p y y y y D p p D p p D /     0 y p D p p p D D y y p y y y 5       8 -.-.-.-.| # 8 | p S D D D D y D D D y y D y y D y N N D y N D D S E : *.-.-.-.-.-.{ & y S S D D D D D D D S D D S S S S S S D D D N ^       # -.-.-.-.-.-.-.-.-.-.-.",
"-.-.-.^ 5 r r r r r r r r i i r r r r i r i i i i r i r i i r r i r i i r 1       0 -.-.~ % %.i i i i i r i i i i i i i R   r i i r i i i i i r i r i       -.-.-.-.-.W T i i i i i i i i i i i i a u 6     ' u i i i a i i i u i a i a -.%       _ -.-.-.-.-.#.&   : ! i i i a u a a i u u u i a a u u u i u u i a u #.  1 =.-.-.-.-.U 8 a a u a a a a a a a a a a a u a u i a p a u a 6       5 -.-.-.-.-.-.-.-.-.-.-.",
"-.-.-.6 ! c c c e c e c t c t c e t e t t c e t c e c e z c e e c c c v %.o       [ -.$.@ ) e c e e e e v e e e c e e O.O   e e e e e e z z z e e e e       -.-.-.-.-.1 } c v v e x e e e r e r e e r %   @ -.e v e v v r r z e v r r r {       o %.-.-.-.-.-.^ ; < ^ %.r r x r v r r x r v r r x r r r r r r x r r v &.    W -.-.-.-.: _ x r r x x x x x r x x r r r x r r r r r r r r %       ! -.-.$.-.-.-.-.-.-.-.-.",
"-.-.-.$ $.c c c h c t c c c h c h c c c c c c c c c t c h t c h c c c c Q       @ -.-.5 4 c c c t h c h c c c h c t c 1     h t c c c e c c c c c z c       -.-.-.-.*.& t c c t c c c c c h c c t c |     4 h t t t w t c c c c c c c c U       1 -.-.-.-.[ : 1 | c c c h c c c -.{ c c c c c c h c c h t c c c t c c $.    = -.-.-.$.o *.c c c c c v c c c c c c c |                           #.{ 2 < -.-.-.-.-.-.-.-.",
"-.-.{ : w h c c c h h h h c h w c c t h h h h h h c c h c h h c h h c %.%       5 -._ O #.h h c h h h h h h h c c h } > , , h c h h h h h c h c t h h       -.-.-.-._ 6 t h h h c h h c c h h c h h R     ! c c c h w h c h h h c c c h :       W -.-.$.8 * ` c c h c c c c c c |   > ~ &.h c t h c c h c c c c w c h `     . -.-.-.! 1 c c c h h c c h c c c w c c R                         O : * #   5 -.-.-.-.-.-.-.",
"-.-.U q h h h h h h c h c h h h h h h h h t c h h h h h h c h h h h -.1         ^ %.& Q w h c h h c h c h c h h h h c h h t h h h h c h h h c h h h h       -.-.-.-.8 ^ h c c h h c h h c h h h t h 5 % % $.h h c h c h h c h h h h h $.        O.-.{ # 0 =.c h h h h c h h h c !       % T @.h h c h c h h w h h c h R     o -.-.-.5 W h c h c c c h c h c c c c h 7 & * & & * & * & * & * > 6 _ $.X     5 -.-.-.-.-.-.",
"-.-.: ] h h h h h h h h h w h h h h h h h h h h h h h h h h w f h &.4         & -.8 > -.h h h w h h h h w h h h h w h h h h h h w h h h h h h h h h h       -.-.-.-.& %.f h h h f w f w w f h h h h h h h h h w w h h h h h h w h h h !       * -.-.* ! w h h w h h h h h h h h h h h w h w w f h h h h w h w h h h c 1     & -.-.-.O ..h w h h c h h h h h h h h h c h h w f h h h h h w h h h h )       O =.-.-.-.-.-.",
"-.$.# &.h h f f h h f h h g j h h j h h f h h f f h h h f h h f { ;           ' [ .  .h h h f h h h h f g h g h f w f h h f h h h h h h h h g h j f h       -.-.-. ., f h w h h h h h g h f h h h h h w w f f f h h h g h h h h h h f 3       0 -.) < h w f f f w h f h h h f h h h f h h f h w h h h h f f h h h h &.O     2 -.-.[ * h h h f h h h h h h h h h h h h j h h w h h h h h f h h h h 6       4 -.-.-.-.-.-.",
"-.! 5 f f f f f f f f f g f h j j f f f f f f f h j k k j @.( 2             Q =.* q f h j f w g h g h h h h h f f f f f h h k g f k f f w g f w f f h       -.-.-.E R f w g f w h h f f h h f g f f h f f w f h f f f w h h h f f h -.@       ' -.5 ^ f h h h f w f f w h h h h f f h f f h h f h h h h h f h f j k `       R -.-.0 9 h j f h h f h h f f h f f h h f h h h h w f h h f h h h g f &       ! -.-.-.-.-.-.",
"-.4 ! f f j f f h g f f f f f f f <                                     . ^ -.q * &.f f f f g f k f f f f g f f f f f f g g g h f h f f g f f f f f f       -.-.-.< | f f f g f g g h f g h f w f f f f g f f f h f g f g f f f f k [       @ &.-.* O.f k f f f g f f h g h g g j f h g h g f k f f k f f h f f f j 9       { -.-.; ` f f f f j f j f f j j h f f f j f f f g g f f f h f f f w  .        $.-.-.-.-.-.-.",
"-.@ $.j j g g g f f f f g g f g %.X                                   >  .-.| . ' f g g f g g f f f f g g g f g f f l f g f k g f g g f g f g f f f k       -.-.-.$ f l f f g g g f g f f g g g g g g g f f f g g f g f g f g f k f 6       5 -.-.$ -.g f g f l g f f f g k f g f j k f g f f f g f f f f f g f g =.#     @ -.-.#.O &.f f f f g f j f f j j j j k l f g h g j g f f j j g j g f W       : -.-.-.-.-.-.-.",
"' : g g j g g f g g g s g g g l )                               % 5 ' -.-.-.: 7 g l g f g g g f g l g g g g g f g g f g l g f l l g g g f g g f f d l       -.-.-.& &.f g l f g g g g g g g g g f h g g g g g g g f g g f g g g l ]         ~ -.-.% -.g g f g l g g g g g l f l f d g f g l g f g g g g l l l f f q       3 -.-.Q 2 l f f l g f f j g g f g g f l j g f f g g g g j j g g g g g 1       T -.-.-.-.-.-.-.",
"9 q s s d j g g g g l g g g l g 6       0 -.-.-.-.-.-.-.-.-.-.-.-.-.-.-.-.E $ %.s f g g g s g g g s s g l l g g l l l l g s g g g g g g g f g g l l l       -.-.-.< } l l g g g g g g g g g g g g g g s g g g g l g l g g g l l  .%       o $.-.-., ..l g l f s g g g g g g g l g g g l g g l g g g g l g f g f )         ^ -.-.2 Q f l d d f g g g g g d d f d l l g g f g g j g g g j g g s &.o       } -.-.-.-.-.-.-.",
"* ] g s s s d d g s s s s g l d $       [ -.-.-.-.-.-.-.-.-.-.-.-.-.-.-.O.o ^ g s s g s g g s s g s g s s T                 -.s s l s l s s s s g s l       -.-.-.( 6 l s g s s g g s s g g s g s g g g s g s g s g s s g s l O.%         7 -.-.-.Q Y g s g g s s g s g s g s g d g s g g s g s g g s g s s s { o       & =.-.-.o O.g s g g g d g s s g g g g g l l l s g g g d g s l g g g g `       % -.-.-.-.-.-.-.-.",
"@ -.s s d s s d d d s s d d s }       O -.-.-.-.-.-.-.-.-.-.-.-.-.-.-.-.< 2 s s s s s s s s s s s s s s O.o                 $.s s s s s s s s s l d d       -.-.-.-.5 ! s s s s s s s s s s s s s s s s s s s g s s s s s s ) #         % %.-.-.-.=.< } d l l s s s s s s s s s s s s g s s s s s g g d s g ( +         ` -.-.` = l s s l d l s s g d g d s s l s s g s s s l s s s l s s s s 9       7 -.-.-.-.-.-.-.-.",
"5 d d s d d d d d s s d d s d U       4 -.-.-.-.-.-.-.-.-.-.-.-.-.-.-.! O O.d s s d d s s d d s d s s s 2                   { s d d d d d s s d s d s       -.-.-.-.=.9 6 { *.s s s s s s s s s s s s s s s s s s s -.O.Q :           @ | -.-.-.-.-.$.2 R  .-.s s s s s d s s s s s s s s s s s d d d $._ 1           Q -.-.-.9 0 s s d s s d s d s d s d s s s s s d s s s s s s s s s s s s *       ) -.-.-.-.-.-.-.-.",
"X                                     Q -.-.-.-.-.-.-.-.-.-.-.-.-.-.-.) O                                       5 -.-.-.-.' @                               -.-.-.-.-.-.W                                                           & | -.-.-.-.-.-.-.=.2                                                           T -.-.-.-.R                                                                     o %.-.-.-.-.-.-.-.-.",
") .                                   #.-.-.-.-.-.-.-.-.-.-.-.-.-.-.-.-.[ o                                   O #.-.-.-.-.-.{ +                             -.-.-.-.-.-.-.^ O                                                   X 7 %.-.-.-.-.-.-.-.-.-.=.5                                                     @ ^ -.-.-.-.-.-.W                                                                   1 -.-.-.-.-.-.-.-.-.",
"-.) X                               = -.-.=.-.-.=.-.=.-.=.=.-.=.-.-.-.=.-.` X                                 R -.=.-.-.-.=.-.[ O                           -.-.-.-.=.-.-.-.#.6 %                                         o * 9 X.-.-.=.-.-.-.-.-.-.-.=.-.-.! : o                                         X * q $.-.-.=.-.-.-.-.-.Q                                                                 W -.-.-.-.-.-.-.-.-."
};
