/* XPM */
static char *trozo_izquierda[] = {
/* columns rows colors chars-per-pixel */
"300 20 256 2 ",
"   c #020101",
".  c #0C0403",
"X  c #0C0B05",
"o  c #0D0C09",
"O  c #070A06",
"+  c #120505",
"@  c #1A0604",
"#  c #140A05",
"$  c #1C0A05",
"%  c #140B0A",
"&  c #1C0C0B",
"*  c #14050A",
"=  c #13110B",
"-  c #1C110D",
";  c #1E1007",
":  c #1C0F11",
">  c #1C1312",
",  c #151212",
"<  c #081107",
"1  c #230A06",
"2  c #2B0B06",
"3  c #230D0C",
"4  c #2A0D0B",
"5  c #250604",
"6  c #340E0D",
"7  c #3B0E0E",
"8  c #360B07",
"9  c #24120D",
"0  c #2B120D",
"q  c #271407",
"w  c #33120D",
"e  c #3B140D",
"r  c #39190E",
"t  c #33180B",
"y  c #230F12",
"u  c #2C0E12",
"i  c #290F18",
"p  c #3A0E11",
"a  c #330E10",
"s  c #231211",
"d  c #2C1412",
"f  c #251814",
"g  c #2C1A15",
"h  c #2B131A",
"j  c #29191A",
"k  c #341413",
"l  c #3B1413",
"z  c #341914",
"x  c #3C1A14",
"c  c #34151A",
"v  c #3B151A",
"b  c #341A1B",
"n  c #3C1B1A",
"m  c #3C211A",
"M  c #3B1C21",
"N  c #381720",
"B  c #382523",
"V  c #43130D",
"C  c #4A170C",
"Z  c #58160E",
"A  c #450E13",
"S  c #431513",
"D  c #4A1514",
"F  c #431A14",
"G  c #4B1A15",
"H  c #421719",
"J  c #4D151A",
"K  c #441B1A",
"L  c #4B1C1B",
"P  c #531514",
"I  c #5B1615",
"U  c #541B14",
"Y  c #5B1B15",
"T  c #541C1B",
"R  c #5C1D1B",
"E  c #581519",
"W  c #470C0A",
"Q  c #631C16",
"!  c #631D1C",
"~  c #6B1E1C",
"^  c #681B15",
"/  c #751E1C",
"(  c #7A1F1B",
")  c #751E17",
"_  c #43211C",
"`  c #4B221D",
"'  c #4A2216",
"]  c #5C2116",
"[  c #53211D",
"{  c #5B221B",
"}  c #58261A",
"|  c #6A2115",
" . c #64231C",
".. c #6C231D",
"X. c #65281A",
"o. c #73231D",
"O. c #7B231D",
"+. c #752A1E",
"@. c #7C2A1E",
"#. c #752416",
"$. c #7D210C",
"%. c #451C21",
"&. c #4B1D21",
"*. c #4B1522",
"=. c #531D22",
"-. c #5A1E22",
";. c #631E21",
":. c #6A1E23",
">. c #781F24",
",. c #432223",
"<. c #4C2222",
"1. c #4C2822",
"2. c #542322",
"3. c #5B2322",
"4. c #522A2A",
"5. c #5A2826",
"6. c #583128",
"7. c #632323",
"8. c #6C2323",
"9. c #642A26",
"0. c #6C2B23",
"q. c #642429",
"w. c #6B252A",
"e. c #622B29",
"r. c #6D2A2A",
"t. c #742422",
"y. c #7C2522",
"u. c #742A23",
"i. c #7C2A24",
"p. c #7B242A",
"a. c #742C2A",
"s. c #7C2B2A",
"d. c #732329",
"f. c #7C322A",
"g. c #783129",
"h. c #773232",
"j. c #72322F",
"k. c #8A1E1E",
"l. c #83241D",
"z. c #8A241D",
"x. c #85291C",
"c. c #8B2A1E",
"v. c #862615",
"b. c #94261D",
"n. c #922B1E",
"m. c #99271E",
"M. c #91351F",
"N. c #86361B",
"B. c #A32C1E",
"V. c #A3341F",
"C. c #832623",
"Z. c #8A2523",
"A. c #832A24",
"S. c #8B2B24",
"D. c #842C2A",
"F. c #8C2D2B",
"G. c #8A2628",
"H. c #912623",
"J. c #942B24",
"K. c #9B2C24",
"L. c #942B2A",
"P. c #9C2C2A",
"I. c #972627",
"U. c #8D3124",
"Y. c #8B322B",
"T. c #853629",
"R. c #953226",
"E. c #9C3225",
"W. c #94332B",
"Q. c #9B332B",
"!. c #953B28",
"~. c #862C31",
"^. c #982D32",
"/. c #863633",
"(. c #943534",
"). c #9C3431",
"_. c #9E3B34",
"`. c #993B37",
"'. c #A32D24",
"]. c #A42E2B",
"[. c #A92C27",
"{. c #A33225",
"}. c #AD3527",
"|. c #A3342B",
" X c #AB342C",
".X c #A43A2D",
"XX c #AC3B2C",
"oX c #A83B24",
"OX c #B33325",
"+X c #B3352B",
"@X c #BA3529",
"#X c #B33A2C",
"$X c #BC3C2D",
"%X c #BA3926",
"&X c #A42E35",
"*X c #A33433",
"=X c #AC3B32",
"-X c #A73533",
";X c #B43D33",
":X c #BB3C33",
">X c #B83733",
",X c #B12B28",
"<X c #C63A2B",
"1X c #C33D33",
"2X c #CA3D36",
"3X c #D43E33",
"4X c #9E4330",
"5X c #A4432E",
"6X c #AB422B",
"7X c #BA442C",
"8X c #B2412B",
"9X c #AE4332",
"0X c #A94937",
"qX c #B44433",
"wX c #BB4333",
"eX c #BD4A3B",
"rX c #B64738",
"tX c #B95235",
"yX c #CC422E",
"uX c #C3452A",
"iX c #D3452C",
"pX c #D44A2D",
"aX c #D9482D",
"sX c #C34433",
"dX c #CB4333",
"fX c #CC4439",
"gX c #CC4C3C",
"hX c #C64937",
"jX c #D34433",
"kX c #DA4536",
"lX c #D44B34",
"zX c #DA4C34",
"xX c #D44C3B",
"cX c #DB4C3A",
"vX c #D4463A",
"bX c #C75339",
"nX c #D55136",
"mX c #D5523D",
"MX c #DB543B",
"NX c #D55C3A",
"BX c #DC5D3B",
"VX c #DB5836",
"CX c #E34E39",
"ZX c #E3533B",
"AX c #E7573D",
"SX c #DC633C",
"DX c #D5623D",
"FX c #CD5D43",
"GX c #D85743",
"HX c #CF4A41",
"JX c #E75843",
"KX c #E24E40",
"LX c #DB6642",
"PX c #DA6B43",
"IX c #D66641",
"UX c #E16241",
/* pixels */
"                                                                                          O     . .   .   .     .   .   . .   O   . . . . . . . . . + . . . + + + . . + + + + + + @ + # @ + @ + + * # + + * # * # # + # + # + # . + + + . + + . s m X.N.7XuX6XoXE.K.K.J.n.m.E.'. X=Xy.Y U { ^ 8.e._ b & + # o O   + $ 2 w 7 R y.O./ Q Y I I Q ^ | ../ t.Q.+X[./ l 5 E I.k.O.@.t.0.L V G 2.7.9.} [ m j y 0 k c k 4 9 l F V 7 G T [ 3.! ;.~ :...o.O.C.@.A.A.U.C.Z.z.J.].].m.I.I.n.n.B.%X1XdXdXsX+Xb.C.R.oX.XW.A.~ 8.d.D.D.G.z.Z.L.:X=X0.' ] A.(.~.R F K H h y u l T ;.:.8.R J L U [ Q ] L ' Y Q | C.D.R..X;XgXmXxX$XXXHXJX",
"                                                                                    .         .         .     . . O   .   . . . . . . . . . . . . . . . + . . . + . + . + . + + . + + + + + # # # @ * $ $ * + @ + + + # + + + . + + + . + . . + # 3 r X.4XqX8X}.K.J.K.E.n.K.|.].+XXXR.O.7.} U s.h.=.c 3 & * o o < # * o O # 7 Y Q Z F G G R 8.d.i.D.t...t.J.'.k.T 1 7 p.G.t...u.0.R V x <.9...Y ] n h : y h k l t d 6 V S l S L =.7.! R ^ ~ ../ y.O.l.C.A.U.A.C.H.].].P.J.m.P.K.n.K.}.#X>X X-XE.c.H.Q. X|._.Y./ t.s.D.~.D.t./ ..W.Y.7.T X.Y.F.R u e 0...*.c 0 4 p L ;.R J H &.T  ..... .X.u.i.Z.K..X|.|.;XHXKXJXcX1XhXNX",
"                                                                            O                     . .   .   .     .     .     .   . . . . . . . . . + . + . . . . . . + . . . . @ + + + + + + + @ + # + @ + + # # # + + . + + + + + + . . . + . . + - m 9.T.6X%X{.m.K.E.|.|. X>X>X+X.XF.s.a.] X.a.a.h.5.z 1 # = > > f f = X 4 D P P I ;.d.s.D.G.C.U.i.Q Q  .( >.8.l 4 G t.C.l.O.u.! G x L 7...Q U z % % h M k k b x 7 x K F S K =.{ T E Q ~ ..#.O.@.A.y.C.C.A.y.H.P. X|.E.K.K.Q.Q.E.'. X].].Q.L.Z.F.Q.'.].*X(.y.t.p.G.&X&X^.o.~ ^  .R { a.s.I 5 w ..U.S.a.` x e H T 7.I A L [ 3.:.......t.D.Y..X=X=X=X;XsXvXCXAXKX2X:XiX",
"                                                                                      .     O       .     .   . .   . . . . . O . .   . . . . . . . . . . . . . . . . . + + . + . + . + + + + + + + # + # + + + + + + # + + + + + . + + # . + . . . # ; t } M.6XoX{.K.{..X;X=X;X:X1XfX{.L.(.g.] Q D.`./.2.w $ # = ; g B j 3 1 V 9.r.d.>.A.G.Z.z.z.Z.N.| U D J :.~.-.q q { y.Z.l.C.o.R e K 3.8.8. .K f : B B d 1 w x w n n v l l K { { R Q ~ t.t.C.A.i.l.C.Z.@.A.G.P.].)..XQ.Q.Q.P.K.Q.*X'.{.P.J.H.A.P.-X].^.).F.A.#.t.L.&X&XF.i.{ U R w./.j.W 3 ' W.].K.A.9.<.F ` e.e.T J T 3.7. .7.8.o.y.G.L.P.'.{.|.=X:XfXjXzXcXdX<X<X",
"                                                                                O           .   .   .     . .   .   . .   .   . . .   . . . . . . . . . . . . . . + + . . . + . . + + . + + . @ + + + + # + + * # + + + # + . + + + + . . + . + + + . # & t ] @..X;X{.'.oXoX'.].+XsXgX>X'.|._.i.| u.D./.r.G 2 @ + + y M ,.b 3 w T d.C.C.C.Z.z.z.v.l.D.A. .F k G D.f.' ; l ~ C.C.Z.C.8.D v L 7.~ t.2.n s j g 3 5 6 F k 0 k l p p S L [ { ! ~ t.y.t.A.y.x.C.A.x.A.S.L.P.K.W.Q.E.E.I.H.L.U.Q.Q.W.S.Z.A.L.P.G.G.A.A.i.X...y.L.^.^.G.=.L R a.h.R 8 z g.-XP.G...Y G ' [ 5.2.D D ! 7.7.! ;.:.t.Z.F.J.m.K.K.J.n.{.#XdXMXZXzXyXiX",
"                                                                  O     O     O           O     O     . .     .   .     .   .     . O .   . . . . . . . . . . . . . . . . + . + . + . + . . @ + + # # + # + # + + + # + + + . + + . . + + . + . O + . + . $ x 0.!.XX}.{.B.{.m.z.'.7XgXsX+X[.qXXXU.#.o.i.a.X.' d $ . + u n g # @ A ! ( C.v.x.x.l.@.C.G.S.O.T l z 7.A.+.' a 7 | A.L.G.p. .V l T ~ t.w.K s ; % $ $ l &.M 0 a 0 c h z S ` ] Q ~ / O.O.y.l.y.C.C.@.i.S.H.b.b.n.n.K.K.I.H.C.S.L.W.U.C.Z.y.>.y.>.o.+.u.u.0.X...y.D.D.>.K H 8.h.7.k u 3.(._.( R S C C G [ [ F A T 7.7.R E R :.p.A.F.M.R.{.|.Q.K.B.}.dXZXAXAXZXMX",
"                                                                                              O .           . .   .   .   . .   .   .   . . . . . . . . . . . . . + . + + . . + . + . + + + + + + # + + + + # + + # + * + + * + + + . + . + . + . . . . . * e ~ l.|.=X.X#XqX].c.n.7XgXGXsX+X%X@X.XF./.Y.Y.f.j.1.n s # # y - X X 6 Y O.C.S.A.x.l.O.y.G.l.o.;.l 4 e Q i.h.F t C u.S.I.Z.t.L z G ! y.w.L d : : d 4 H <._ z u 0 c n l l F U  .^ ~ o.i.o.y.C.C.G.i.i.S.Z.z.l.l.c.J.K.J.Z.l.O.x.C.A.p.y.O./ ~ t.u.g.i.f.i.u.o.o.0.~ R p H 8.h.J 4 n a.*XF.Z l K 5.{ ] 5.T H L 3. .! R Y ! 8.o.O.x.F.R..XrXrXwX1XdXcXkXzXAXJXAX",
"                                                                              O         O         . .     .       . .   . .   . .   . . .   . . . . . . . . . . . . . + . . + . + . + . . . . + + + + # + # . # + + + + + + + . . + + + . + + . . + + . . + k G Q t.i.U..X9X9XJ.z.R.eXGXMXdX%X%X1X>X:XwX7XwX0X~.8.} 0 O # % X 3 G t.c.N.S.S.c.Z.z.Z.l...E S 0 & 9 S ! 0.9.L r U t.L.H.@.X.F S  .C.d.=.z 3 4 n n n k z c 9 k c %.K x t L [ R :.t.#./ y.y.y.A.i.A.i.O./ ..O.S.J.K.L.Z.( O.s.s.u.8.d.>.>.y.y.F.Y.L.F.Q.L.v.@...{ J k V #.9.k 4 e.).^.! 8 6 3.d.7.T 7.{ l J 9. .R Y ! o.t.O.O.v.H.E..XwXfXfXjXxXvXyX<XZXJXUX",
"                                                                                    O     .       . .   .     .   .   .     . . . . . .   . .   .   . . . . . . . . . . . . . . + + + . . + + + + + + + + + + + + + + + # + + + . + + + . + . + + + . + + . 3 K R ..+.#.v.M.5X.XQ.R.#XbXGXGXgX$X<X<X3XiXpXcXgX).u.0.' $ + # < 0 Y U.R.c.H.S.Z.C.c.z.#.Y A k & X - l L R X.` v S I / l.x.+.{ G G ;.:.-.%.s k ,.x 3 1 a H M j d v n x e F L T T 3. .Q Q ..8.o.u.#.o.| ^ ! t.C.n.z.c.@.( ( y.d.8.u.t.y.y.o.y.F.F.Z.L.].&Xb.S.0.[ v c D | } 0 w j..Xt.7 7 ] a.t.G L T =.k H } R ] ~ #.i.A.y.l.C.R.R.|.;X2XjXHXKXxXjXyXZXAXAX",
"                                                                              O                       .   .           . . . .     .   .   .   . . . .   . . . . . . . . + . . . + . + + + + + + + + + + @ @ * + + + + + + + + + + + . + + . + . . . + . . + w { A.!.M.v.$.v.!.6X9X6XV.qXFXLXBXxX<X<XiXaXaXcXfXQ.X.9.9.G 5 + < ; D F.W.n.n.J.J.z.z.C.| D l f = O f M &.J S l K K S E ^ @.D.p.} x S -.q.-.H l z 0 1 5 A -.<.h ; s k e e V F K F F G C G U U U  .~ Q Z Q :.u.C.z.@.O.y.o.y.( #.#.o.o.y.O.~ ..d.C.Z.Z.L.^.G.U.g.2.c c L ] ` 1 7 s.!.U 4 [ ~.s.R S G L K a z G { ..a.A.s.D.A.A.Y.W.W.Q.=X7XsX2XGXGXHXkXCXCXAX",
"                                                                      O             O     .     .         . .   . .       .   .   .   . O   . .   . . . . . *   . . + . . + . . + . . . . + . + + + + + + + + . + + + + . * . . + + + . . . + + . . . . . + G Q.qXbXrXoXoX6X7XtX7X8XV.6XtXFXGXxX3X<XaXaXaXkXjXE.| U 0.a.L 1 O < 7 A.|.K.b.n.K.H.Z.x. .V k > o o > h k a 2 5 l 4.` D P ~ y.s.9.G e L w.w.T w 1 @ & c J *.v s 3 - k K V l K e z e e t e F L ` T ] Q I Q ~ i.A.l.t.o.t.a.d.O.#.#.| @.A.o.R ! t.y.y.( C.Z.k.T.r.K b n 2.} _ 1 W y.i.z > 3.~.i.T J [ _ x 4 9 F ] t.~.~.A.f.@.O.A.Z.z.n.|.XX#X>XgXxXvXkXCXAXJX",
"                                                                        O         O       .     .   O   .     .     .   .   .   .   . . . . . O O . .   . . . . . . + . . + . + . . + . + . + + . + + . * + + + + + + + + . + + . + . + . + . . + . . . . @ ..jXxXUXnXdXhXmXmXpXuXuXuXrXXX6XrXrXhX2XcXzXaXkXiX+Xx.Y 0.T.g.r = X 6 p.].,X'.m.K.J.L.y.Q C 9 # o o # & 3 y & 3 f K ` J J T  .a.a.7.V e =.d.7.l # X : v v a u 0 z n v H 7 z n n z l x e l F ` <.T T R R ! t.d.y.y.t.o.8.8.0.t.u.X.9. .t.8.T R 0.i.t.C.C.C.C.U.8.a y c _ ` 9 w ] W.t.9 f T C.+.[ R -.` z 6 z _ w.p.L.F.l.#...t.i.#.( v.Q.#X#X>XwX$X$X3XaXCXxX",
"                                                                              O           O           . .         .       . .     . .   .     . . . O   *   * . . . . . . . + . . + + . . + + . + + . + + + + + + + . + + . + . . + . . + . . + O . + . . # @.nXMXNXMXMXBXAXSXVXnXiXxXfX#X{..X`.). XsXiXaXkXjX3X=Xi.] 0./.1.; o u 8. X1X@X[.K.R.Q.Z.^ P x - o o . . = , : , - 1 l J J l K Q >.d.5.m K 7.w.L 4 = y c b q 1 3 ,.=.&.n a c n n z z l k l l K K K T 3.9.X.....o./ ~ ;.R R T T T J L T =.T S U ;.8.o.>.D.C.O.A.Q u y c K n 3 d u.*X8.k h T d.X.U ! ;.G 4 l n ` w.y.I.^.C./ o.t.d./ / C.Q.qX:X+X>X}.#XsXlXVXhX",
"                                                                        O             O O         O       . .       . . .     . .     . . . . .   . . .   .   . . . . . . . . . . . . . . . . + + . . + . + . + . . + + . + . + + . . + . . + . . . . . . ; T.BXNXNXNXSXSXBXVXSXVXzXlXlXsXwXrX.XZ.k.}.yXiXcXjXxXhX4XZ Z j.5.0   3 E P.2X2XOXB.[. XL.O.3._ j = , + % = = = , : 3 7 J J l z V I ..r.6._ R 7.5.m t y s b x 0 q n =.K k 0 n n l k z z k w 6 p l A J T 5.3.Y Y E R U J J A S 6 p p 7 l A S e V T ! ! / y.y.O.C. .h h b K b > t +.Q.;.n M 3.t.^ Y ;.:.J 2 6 n <.X.| L.*XG.+.t.D.D.@.O.C.Q.=X:X:X:X#X#XbXMXMXgX",
"                                              O                                   O       .   .     O         . .   .   .     .   . .     . O . . O .   . . . . . . . . . . . . + . + + + . . . . + + + + + + + . + * . + . + . . + + . . + . . . . . . $ F 4XDXNXNXLXSXNXVXSXSXSXBXzXpXjXlXmXqXE.n.#XdXjXxXdXdXeXrX#.C L 6.b # y 7 p.2X2X@XOXOXOX'.O.] ' g ; * o < < X + , , * p T T F x e V T 9.6.` x V ] ~ U u 9 n L x t k k 0 q b M n k 0 d g k k l S V D T T 2.T L S S l 6 6 0 0 0 u v H H l z l m K ` { R ;.d.y.o.S.:.l y n V t # t i.P.R b K 8.p...Y ! >.U 0 0 K 3.] ^ R. XW.o.O.F.W.U.@.A.W..X;XfXsXdXfXMXkXmXFX",
"                                                                      O       O                   O       .     .     .   .     . .   .   .   . .   . .   . . . . . . . . . . . . . . . . + + + + . . + + + + . + + . + + + . + + . + + . . . . . . . + q X.0XIXDXDXLXBXVXNXSXSXSXVXVXpXaXCXMXnX8X#X1XyXkXzXyX%X7XeX.Xt.H <.1.m y 1 P W.>X$X$X:XOX[.L...[ z s & o X X $ w j j s T u.s.w.5.` V S [ 2.1.z w D  .! _ z z S F L K z d 9 _ L A 7 x n l n K S S L G D J G V l 6 k u u 0 4 0 9 u h v p l w k F K _ J U Y d.s.o.S.t.l & v L w $ t T.&XT d n w.p.8.] ..d.E 0 0 ` 7...#.J.|.L.i.G.H.C.A.F.Y.F.U..XeXfX2XiXMXyXsXbX",
"                                                                              O             O           .     .       .     . . .   . .   .   . . O . .   . . . . . . . . . . + . + + . . + . . + + + + + + + + + + + + . + + . . + + . + . . @ . + + 3 V u.tXIXPXPXSXDXNXBXSXDXBXBXVXVXZXCXcXcXnXfX3X3XkXjX3X@X@X$XeX`.-.F 6.4.k 9 t Y @.R.XX>X,X[.P.D.R S 0 & # % s u *.<.<.U ..A.U.D.e.&.H J J L _ b 0 e L 5.3.` x t r L L &.%.K &.=.P A J J L ` T L L L L l l k 6 u a k h 0 s ; 3 s y y 0 w k x F H x e L T Y 8.w...O.8.G $ l &.p @ S T.&X=.d _ r.p.! Y 8.s.{ 0 9 &.q.~ A.P.].H.y.D.S.( y.Y.(.i.v.R.9XwX<XlXVXsX6X0X",
"                                                                                        .         O   .     .     .   .   . O     . .     . . . .   .   . . . . . . . . . + . . . . . . . . . * + . . + + + + * + + . + + . . + . . . . + . . . + + 3 V X.!.FXSXPXPXPXDXDXSXSXSXLXUXBXZXZXJXCXzXnXjX3X3X3X2XfX1X@XOX2X9Xf.U G L n B m e Z ( b.b.m.].*X~.! G k 1 + - j n =.5.9.o.O.v.@.X.' k l K J l b g g d l G 3.5.[ F t 6 l L <.2.3.3.R J L U R [ [ G v p h k w 0 3 9 s f 0 s ; ; # * 1 s 0 w n <.2.L e w r 9.;.;.! ! ) t.{ 3 k %.v * r ~.`.=.c _ 9.t.^ U ..s.[ 0 9 &.q.8.i..X&XH.>.A.G.y.O.A.D.@.v.S.|.oXwXgXbXhX6X5X",
"                                                                                .     .             O     . .     .     .     . .     . . .     .   . .   . . . . . . . . . . . + . . + . + * . . . . + + . . + + + + + . . + + + + + . . . + . + 3 l X.!.tXSXPXPXPXPXSXLXSXSXSXUXUXMXMXZXJXCXzXpXjXyXjXsX@XsXsX+X[.+X>X!...V 2 l 4.4.<.E p.C.v.$.A.Y.D.^ Y F u * % f z n J :.A.z.z.#.U w + @ u k d g f h h u v T  .{ ` F l t l H K <.3.R E J G U T L 7 a i y y : : - - & % + + + . + # y s 9 9 n &.5.q.[ x x 2.;.-.{ X.| u.e.d g b v - t u.W.L w n 7.:.Y U 8.a.R q 9 <.-.E o.W.*XL.i.i.F.A.#.#.i.T.!..X5X5X#XuXsX7X9X0X",
"                                                                        O                 .       .     .     O .     .   .     .   . .   . . . . . .   . .   . . . . . . + . . . . . + . . O * + + + + + + + . . + . . * . . . . . . . . . . . 1 e { N.tXSXPXSXPXPXPXLXLXSXSXSXSXBXMXzXlXxXlXpXpXiXiX1X$X}.}.oX X'.'.,X'.S.] t p T 2.&.J ;.i.+.X...i.p.~  .3.` f ; ; f 0 p E p.l.l.y.w.%.% . + * , > : i i i p G ] ] 3.{ L K v l x F G G F ' S C V t 4 3 y & * % * o o + . * O + . X o & f f 9 k v =.q.2._ x G R =.T 7.Q #.8.r > h b > g } f.S 3 z 3.t. .R ..~.7.0 s &.=.J Y l.L.D.a.i.F.T.A.| ) `.9X;X6X5X6XtXFXbXeX0X"
};
