/* XPM */
static char *trozo_derecha[] = {
/* columns rows colors chars-per-pixel */
"300 20 256 2 ",
"   c #5F1B15",
".  c #681A0E",
"X  c #631B15",
"o  c #6C1D14",
"O  c #631C18",
"+  c #6B1F18",
"@  c #711F14",
"#  c #741E1A",
"$  c #622217",
"%  c #6D2116",
"&  c #652219",
"*  c #6D231B",
"=  c #6D281D",
"-  c #732116",
";  c #74241B",
":  c #7C251C",
">  c #77281C",
",  c #7C291E",
"<  c #7C2516",
"1  c #6F2821",
"2  c #742421",
"3  c #7D2721",
"4  c #732823",
"5  c #7E2A21",
"6  c #812716",
"7  c #82261C",
"8  c #8D271C",
"9  c #832A1E",
"0  c #8C2B1E",
"q  c #922B1E",
"w  c #9C2B1F",
"e  c #92261D",
"r  c #8D301F",
"t  c #93331E",
"y  c #A42D1E",
"u  c #AB2C1E",
"i  c #B12E1E",
"p  c #AF341C",
"a  c #B5321E",
"s  c #8A2721",
"d  c #842B22",
"f  c #8C2C22",
"g  c #852923",
"h  c #942D22",
"j  c #9B2E23",
"k  c #932E29",
"l  c #992B26",
"z  c #8B3023",
"x  c #8B3229",
"c  c #863023",
"v  c #943124",
"b  c #9D3124",
"n  c #9E3328",
"m  c #973A26",
"M  c #A32E23",
"N  c #AB2E23",
"B  c #A12F29",
"V  c #AC2F29",
"C  c #B32E22",
"Z  c #B82F26",
"A  c #A33225",
"S  c #AC3225",
"D  c #A43329",
"F  c #AC3429",
"G  c #AC392B",
"H  c #A73A26",
"J  c #B33425",
"K  c #BB3526",
"L  c #B33826",
"P  c #BC3926",
"I  c #B3352A",
"U  c #BB362A",
"Y  c #B4392B",
"T  c #BC3A2C",
"R  c #B53A31",
"E  c #BD3B31",
"W  c #BC3730",
"Q  c #C23526",
"!  c #C33926",
"~  c #C3362A",
"^  c #C93629",
"/  c #C33B2C",
"(  c #CB3C2C",
")  c #CA3926",
"_  c #D33D2E",
"`  c #D73E2C",
"'  c #C33D31",
"]  c #CB3D32",
"[  c #D23E32",
"{  c #DA3C32",
"}  c #D53F39",
"|  c #E43E30",
" . c #A6412B",
".. c #AA462A",
"X. c #B8542D",
"o. c #AD4C32",
"O. c #BE4133",
"+. c #B95635",
"@. c #BC6039",
"#. c #C5422D",
"$. c #CC412E",
"%. c #D3422E",
"&. c #DB432D",
"*. c #D6492F",
"=. c #DD532C",
"-. c #C54133",
";. c #CD4232",
":. c #CC4538",
">. c #CD483C",
",. c #CD4B35",
"<. c #D34333",
"1. c #DB4434",
"2. c #D54935",
"3. c #DB4A35",
"4. c #D34439",
"5. c #DC4639",
"6. c #D44B3A",
"7. c #DC4B3A",
"8. c #C25637",
"9. c #DD513C",
"0. c #DF5939",
"q. c #D45039",
"w. c #E0462E",
"e. c #E34535",
"r. c #EA4636",
"t. c #E34B35",
"y. c #EA4C36",
"u. c #E4463A",
"i. c #E8463A",
"p. c #E34C3B",
"a. c #EB4D3B",
"s. c #E45234",
"d. c #EC5336",
"f. c #E55936",
"g. c #E4523B",
"h. c #EB533B",
"j. c #E55C3B",
"k. c #EB5C3D",
"l. c #F15537",
"z. c #F35A36",
"x. c #F2553A",
"c. c #F25C3B",
"v. c #EB4F33",
"b. c #CC653A",
"n. c #C8693A",
"m. c #D4783E",
"M. c #E5623D",
"N. c #EC633D",
"B. c #E66B3C",
"V. c #EC6A3E",
"C. c #E76336",
"Z. c #F2633D",
"A. c #F26A3E",
"S. c #EA733F",
"D. c #F2703F",
"F. c #DF5541",
"G. c #D64C41",
"H. c #EC4F41",
"J. c #E54F40",
"K. c #F04C40",
"L. c #E35442",
"P. c #EB5541",
"I. c #E65B41",
"U. c #EC5D41",
"Y. c #EB5F48",
"T. c #F15641",
"R. c #F15D41",
"E. c #F85943",
"W. c #D66C43",
"Q. c #DC7A43",
"!. c #D87544",
"~. c #CE6F47",
"^. c #E66342",
"/. c #EC6342",
"(. c #E66A44",
"). c #ED6B44",
"_. c #EC6748",
"`. c #EC6C49",
"'. c #E46E4A",
"]. c #F16443",
"[. c #F36B43",
"{. c #F36D49",
"}. c #F86B46",
"|. c #ED7245",
" X c #EC744A",
".X c #E67B4B",
"XX c #EC7C4C",
"oX c #E77746",
"OX c #F37245",
"+X c #F97246",
"@X c #F47B46",
"#X c #F2734A",
"$X c #F97449",
"%X c #F47B4B",
"&X c #F97C49",
"*X c #ED7B50",
"=X c #F87E51",
"-X c #F57E53",
";X c #DC8442",
":X c #E5844B",
">X c #EC824E",
",X c #E68B49",
"<X c #EA8A4B",
"1X c #E68947",
"2X c #F38346",
"3X c #F4844B",
"4X c #F9844C",
"5X c #F5894D",
"6X c #F98B4F",
"7X c #E59148",
"8X c #EB924B",
"9X c #ED9B4D",
"0X c #E69948",
"qX c #F2934E",
"wX c #F39D4E",
"eX c #ED8A53",
"rX c #E98550",
"tX c #F38354",
"yX c #F48D53",
"uX c #FB8C52",
"iX c #F98856",
"pX c #EC9552",
"aX c #ED9B51",
"sX c #E99956",
"dX c #F49455",
"fX c #FB9354",
"gX c #F59B55",
"hX c #F99B56",
"jX c #FB9E5A",
"kX c #FA9959",
"lX c #EDA24D",
"zX c #F1A04E",
"xX c #EDA252",
"cX c #EFA159",
"vX c #F4A354",
"bX c #F4AA56",
"nX c #F5A45A",
"mX c #FBA45C",
"MX c #F5AC5B",
"NX c #FAAB5E",
"BX c #F9A955",
"VX c #EEB158",
"CX c #FBB25D",
"ZX c #F5B458",
"AX c #F5A360",
"SX c #FFA760",
"DX c #F6AD61",
"FX c #FCAC62",
"GX c #FCAF69",
"HX c #F5B363",
"JX c #FDB363",
"KX c #FCB964",
"LX c #FDB46B",
"PX c #FDBA6C",
"IX c #F7B968",
"UX c #FEBA70",
/* pixels */
"LXGXPXPXKXCXCXFXFXmXgXfXfXfX6X4X4X4X&XD.D.&X$X+X+XD.A.D.D.+X+X@X@XOX[.D.[.].].N.c./.Z.].E.Z.z.l.l.d.f.h.h.3.$./ J P T P G F b 8 e 0 h h k h h f c d g 7 d 7 g s g f f 9 0 q q q h l n j V F R R R F V J J K J T / T P U U P T T L T ;.6.J.i.{ [ 2.J.H.t.&.1.7.%.;./ $.*.t.p.h.y.x.h.t.*.! Q ! ( #.T T ~ K ' ' ' -.%.] %.4.} } <.,.#.T P ) #.T U / ' E T U U U / ' T $.5.r.u.p.p.7.*.%.&.&.v.p.1.7.g.H.5.u.[ ~ ] ( _ ] $.( / #.,.F.k.x.k.M.f.f.c./.[.[.[.{./.M.f.k.N.N.k././.[./.].N.].].[.).).{.).|.).).{.).#X#X`.`.).).)./././.U.U.c.R./.{.%X3XyXjXCXZXZXZXBXzXwXqX5XS.b.+.Y t 6 # - : ; 2 3 2 @ # * + O X O   X O     ",
"GXGXIXPXKXCXJXJXSXmXjXfXhXfX6XuX6X4X2X&X&X&X$X$X@X[.D.D.D.D.D.D.OX[.D.D.[.A.].].].c.c.c.E.z.l.d.l.d.s.t.7.%.( E I S S G F b t q 0 0 0 f h h f f c d 3 3 7 3 g d g s f 9 0 h h h b D B B M D G G D B N S Y I J I T T P K I P T Y H L #.6.J.i.{ _ %.7.g.p.&.3.9.*.$.) $.4.v.v.h.h.a.y.t.3.*.) #./ ' E W W J I Y I Y E E -.] ~ ] ;.<.<.%.%.$.#.U U U / ' ' ' U / ' ' T ' 5.r.| 1.2.%._ ` &.1.g.g.%.&.u.u.p.p.&.1.u.e.1.7.4./ a S P %.7.g.U.M.k.U.c.k.c.].}.{.`././.k.k.N.c.N.N./.Z.N.].Z.N.].[.{.#X).).).|.).).).OXOX{.).).).).].Y./.U.U.k.U.].{.OX X<XhXMXZXCXDXCXBXBXgXqX;X!.W.X. .r 9 7 ; # 2 # ; + ; * * + o X O O     ",
"LXGXHXHXKXKXCXJXFXmXkXfXfXfX6XfXfX6X2X@X+X@X@X$X+X+XD.D.D.}.OXOX|.[.D.A.A.Z.].].Z.k.k.l.l.l.v.d.d.f.3.&.%.;.-.O.G A M M j j j h f 0 r f r 8 0 9 7 d 7 7 d d c d 7 7 g e h h j j l B B B B B F A A M A S I S J I I U I Y Y T Y L S S U ] 4.u.} ] ] $.<.2.1.1.r.u.e.&.{ e.t.h.d.h.t.t.v.p.t.7.] ) ) ~ K K K K J u C J J P T E ' [ [ &.u.1.3.[ / U K U ' :.:.' ' ] ;.' ' 4.5.{ { %.( ( _ 1.5.p.7.$.( 1.5.7.7.2.7.P.g.p.g.6.] T P P ! $.7.j././.].R./.c.c.N././.].{./.U.]././.N.N./.).[./.[._.).).).[.N.]./.].[.{.{.#X{.).N./.`.{.)./.]./.c.j.^.#X|.B.D.2XfXwXgXDXLXIXZXbXBXwX9X8X:X!.n...m f : + * * * + * o @ + X X X   X ",
"PXPXJXKXKXJXFXFXCXmXhXfXfXfXfXfXuX6X4X&XD.D.+X$X$X+X+X+XOX[.OXA.A.V.Z.Z.Z.N.Z.Z.c.k.c.c.z.l.d.h.k.h.7.%.$.#./ Y G D j w h h h f f 0 0 f 9 9 6 7 3 7 3 d d 5 d 5 g 7 f h h h b l b A A A M M B M b M A A A F V J J S J Y Y Y Y J S N J U ] [ 5.] ' ^ ( ( _ 5.a.K.a.i.r.i.1.e.g.p.p.g.g.g.7.;.( ( / ^ ( ^ / ( ) K J p N J Y T -.] { <.1.1.1.[ ] / Q ~ ( ;.} ~ ~ ] ;.;.:.5.2.%.( ] ] ] %.5.7.7.5.$.( _ [ 4.7.4.,.9.t.7.9.9.%.$.:.6.:./ / q.L.Y.Y.Y.R.]./.k.f.k.].].{.[.{.}.{.].N.[.Z./.N.N.N.M.M.M.M.N.c.N.N.A.].V./._.^.)./.[.).[.[./.N.N.M.`.#X{.B.C.A.2X1X,XvXHXHXVXbXZXBXvXlX9X8X;Xn.@.o.v : + * @ + @ ; > * * O O X   ",
"PXJXKXKXKXJXCXFXNXmXgXfXfXfXfXfX5X5X4X&XOX|.+X+X{.{.{.+XOX{.[.).A.A.Z.Z.N.Z.Z.z.k.l.l.l.l.h.h.d.g.g.7.,.$.P S M A h v v q f f s f s 9 9 0 9 < 7 7 7 7 7 7 5 3 5 5 d s q h l b l b j B B b b A n M b b M H D M B V F F I Y Y Y F F F V I T / #.-.' ~ ~ ! / 1.H.H.a.p.r.e._ { e.p.7.e.7.5.$.^ ( *.1.%.&.[ &.5.3.*.] W U U K Y J ] [ ] ] [ [ [ 4.] ~ ~ ~ ] ] ] ] ~ ] 4.:.;.<.] ' ] ;.;.4.7.7.3.<.$.^ ] ] <.>.( / ,.*.9.9.7.:.%.4.>.-.J u T ,.7.g.U.Y.R.R.U.c.].R./././.[.[.{.[.].}.[.].].).).).'.).V.)./.{.V.N.N.M.M./.).).).).|.).Z.N.N.N.N.`.`.[.N.N.N./.N.S.yXmXDXMXbXJXCXNXbXzXaXqX7XrX~.+.m 9 < o % - @ - ; ; + + o X ",
"KXJXKXPXKXCXCXFXNXmXhXhXfXfXfX2X2X2X&X&X@XOXOX{.[.{.{.{.).[.A.[.+XA.A.Z.Z.c.c.c.x.l.l.l.x.h.t.3.7.3.%.$.#.p y y w q r r 0 f f f 0 g 9 d 9 9 7 7 3 d d d 7 3 : 3 5 g l q h j h b b A j B b n A A A b b b D A D j B F F F F F I G I F F I P U T T T U T / ^ 2.u.p.t.1.1.1._ ) [ 1.1.&._ ( ' [ 1.p.t.t.t.e.1.7.p.3.5.] ] ] U Z C T / ~ K U / / ] ] ^ ^ ] ] } ] ^ ~ ~ ;.;.] ] / ' ' ] ] ;.5.4.] ] ] ] #.] ' ;.U J ;.,.7.4.%.$.^ ] ] P N N I ' ;.3.7.k.U.k.U.E.E.c.k.k.k.k./.[.].Z.[.[.[.).{.#X#X-X#X|.OXOX#XOXS.).).).).{.).).`.|.OX{.V.N.N.].].]./.]./.U.k.k./.OX4XyXgXvXAXnXDXGXDXbXzXwXgX,Xm.n.+.H r , : # # * * % + + O ",
"PXLXKXKXKXJXCXCXSXmXhXfXfXfXfX2X2X4X&X&XOX@X+X+XA.[.[.[.[.[.N.}.+XA.A.Z.Z.c.Z.c.l.l.d.y.v.g.3.&.%.#./ P S y y j j v z 9 g c f g f d d d c 9 9 9 d d 5 , : : : : d f h q h h h v j j j b b b n A A j j b D D D j B D V F V F G F F B V F Y W U W U T T ( ;.$.%.*.%.%.%.1._ _ ( %.[ _ ~ ~ ] 7.a.h.v.t.r.u.&.&.5.1.{ [ ] [ ] ' / U J J I P G Y / ~ ~ ] ] } 4.G.] ~ Q ] / ~ ~ U T / ' ~ ' } $.~ K ' / ;.] ' E U P #.%.2.3.4._ ) _ ] / E E R W ' %.9.g.g.k.h.l.d.x.c.c.M.U.U./././.N.j.j././.).).#X#XOX%X=X=X%X#X|.#X#X#X{.).).#X#X#X{.|.).D.[.N.N.k././.Y.T.E.].].).oX|.>XeXpXAXGXGXMXbXvX9X7X1X<XXXW.8. .v g < # o @ ; 2 ; ",
"PXIXPXPXKXJXnXmXmXjXhXfXhXhX6X5X3XuX&X+XD.OX$X+X[.A.[.[.[.}.{.[.D.A.A.Z.z.z.].c.k.l.d.y.y.a.7.;.#.#.L y M M j w h h f d 9 d x d , d d d 9 9 : , 3 5 3 , : 3 7 s f h h j j b b v b j w j M b M j j j j B D D D n B M B F B F D F D B F I I W W E T U U / #.$.%.;.( _ ` %.[ <.;.$.] ~ K U $.J.K.K.y.p.y.u.&.e.r.u.{ [ } ] ] ] ] ' K C S L G G K K U ] } } 5.5.[ ^ Q ~ ~ T } ] ' ' ' E ' -./ Z U E T ' ' P K T / ;.;.2.7.9._ ( _ ^ T W R Y I U ;.5.5.3.a.v.h.d.g.g.g.j.j.I.Y.R.].].c.k.R.].Y.].].U./.].{.{.].].].{.{._.^./.`.`.`.{.|.#X%XOX).D.N.j.k.I.k.h.x.g.U.T.U.U./.].#XiXAXnXDXZXMXbXcX9X8X8X<XQ.b.+.G r 6 < - * ; : ",
"PXPXUXUXJXNXvXnXSXjXkXdXfXiXuX6XuXuX=X+X).OX$X+X}.A.Z.A.A.+X+X{.D.Z.A.Z.l.z.z.k.l.h.h.v.t.4.] T P G S b j l h e e 8 0 9 , , 9 9 < : 3 7 : 3 , , 3 > > > : 7 0 0 s s l h l j h k b l b A b B l j j j A B B D B B j M M B A D V M A A S I Y W E E E T P T / ) $.$.( [ [ %.%.%.<.:.] ' W P $.u.r.y.y.p.t.u.5.1.u.u.J.5.[ [ ] ] ] ] ~ Z P Y Y G G L J Z ' [ } >.] / ) ' ' [ 4.} ] ' U ' ' W E Z W ' W ' / T P T -.#.;.,.;.*.%.*.2.*.] ' T L N F U T / [ J.J.9.7.[ ] ] #.%.7.L.j.U.U.j.f.k.P.k.k.P.k.k.d.h.x.x.U.U.U.N.N.k.U.Y.Y.^._.{.#X|. X%X@X@X#X`./.M.k.f.h.U.T.H.H.T.h.j.B.oX5X9XcXnXnXvXbXzX9X0X8X,XQ.n.X. .m 9 6 < < ",
"UXUXUXLXJXnXvXmXSXjXfXfXyX3XyXuX6X3X%X{.|.[.A.+XA.}.A.A.Z.}.}.A.A.A.Z.Z.c.c.d.d.d.k.g.3.*.#.K C S M M A k h e 0 8 7 9 9 9 9 9 < < ; # : : : , , > : > , 3 7 g f h h k l h q q h h b B j l b b k j l l b A B j j w w M M A A A A A A G G R E W I I T / / P P Q / $.<.%.%.$./ ;.6.-.E P L #.&.| r.y.u.5.5.5.1.p.5.5.5.%.( ] ' ] ~ ( -.-.E T Y L G Y J J T ' -.' / / ~ 4.4.} ] ' U U ' W Z U W U ' T T T T T T ' / / / P / $.3.9.7.7.q.:./ C u N S Z W G.G.>.' Y V S J J ;.7.7.%.%.2.%.2.6.6.7.6.7.7.9.2.9.F.9.g.g.a.h.P.P.k.k.U.j././.).).XXtXiXiX-X*XoX_.M./.Y./.U.k.h.k.s.=.=.C.|.XXrXpXgXnXnXbXvXwX9X7X;X!.~.@.o.m t 0 ",
"UXUXLXLXGXCXmXmXjXkXfXiX6X5X4XuX4X@X@X#XD.D.[.[.A.Z.A.A.A.A.[.Z.c.}.Z.c.c.c.d.v.g.k.7.*.$.P S y S A D n k q s f 0 7 9 9 d d 9 9 , < - , : 9 5 > = > ; < 7 g f h z v k j k t q q v l b l h b v h h h j j l b j e w w j j M A D D A F F G I R I F I T O.T K K U ( ] $.] ) ) U T :.W R Y J ] 1.r.r.y.e.[ 1.{ 1.u.5.5.<._ ( ( ] ] ] $.' / P #.-.Y G Y L J Y Y F Y W W ~ :.} ~ ' U J J K I I I U E ' E T T T T T E E P K P ( ( 4.4.;.4.L.7.2.( P S F N C W E E R V V F R U $.7.4./ Q P / ! / U T P P / / ! #.>.,.<.4.7.p.P.T.T.U.U.U././.j.M.(.oXXXtXtXtX*X%X|.`._./.k.U.U.c.j.s.s.d.U.^.oXXXqXgXnXvXvXvXvX9X0X7X:X.XQ.b.X...",
"UXUXLXGXJXFXNXmXkXdXdXfX6X4XuX4X4X%X#XOXD.).).[.A.Z.Z.}.A.A.Z.Z.c.c.c.c.c.k.h.t.3.g.*.#.#.L y y A A n b k s s 9 9 9 0 d c c 9 d c , , ; * - ; ; = ; ; : : , 9 0 r f v v v v h q h j l b b h v h h h k h j h q h e j j M j B A A A A S F F G F S I Y T T K K P ( ] ' ) ~ U K J T F F J P :.r.K.y.y.e.1.1.[ _ 1.t.t.t.e.%.[ [ ] $.$.) ! ^ #.$.P I T L I I P Y Y I J Z W U U / ~ T K Y U Z U I I J Y T P I I U W Y I U / ;.( ] %.[ 7.L.9.t.2.,.#.;.K C Z Z Z V I V V R ' 2.9.<./ Z K U Y Y J J J u u i a K T / U / ] 4.7.g.h.a.P.U.U./.N.N.M.M.(.'.XX>X3XtXXX X`.).I.U.U.]./.c.l.s.f.M._. XtXeXpXeXeXgXMXcXxXlXpX7X<X1X!.n.",
"LXLXLXGXFXNXnXmXnXhXfXiXuXuXiX4X@X@X@XOXOXOX{.+X}.A.A.Z.Z.Z.Z.c.z.z.d.k.c.h.h.e.&.3.;.P L H b b n A b h f f g 9 d c d d c 9 9 9 d 5 > = * * > > , ; < : : 7 7 7 7 8 f f h h h q q h h j k h h v v v q h h e j h b v j w j b b A S S A A A A M S F Y T P U P T / / / / ~ / I J S V B I T ,.1.| e.e.w.1.2.( ( &.7.3.r.t.5.5.<.[ ( ^ ! ^ ( _ ( ) ~ U ~ T ~ U T Y V S S S J T U T -.E Y I Y I J V C I Y I J C J R W W ' ' ' ) / ) ] 4.5.1.1.t.=.3.g.2.%./ / T U I Z R T -.;.<.( U R R I I F R F S S S I Y T L L J J W U $.*.1.3.t.g.P.k.U.U./.j.j.M.V.D.@XeXrXXX|.`.)././.N.U././.I.j.j./._.'.XX*X'.XXtXdXsXnXvXlX0X0XaXsXsX",
"LXLXGXGXNXMXNXnXhXhXhXfXuXuXuX&X@X@X@X{.OX[.+X+X+XA.A.Z.Z.Z.A.c.z.x.x.x.l.h.a.1.( ;./ L H A b b v m h f f f f 9 x x c 5 9 , < , d 3 d 3 9 d c c 9 , 9 9 9 0 7 6 6 7 s 7 0 f h h q q e q h h v h h h h h j h j j j b w j w j j b D D H A A b w M S G Y Y J U P T T / ~ / / U J V V D F T / _ _ ` ` 1.5.1._ ( [ 5.2.&._ 1.1.1.%.( ! ! $.$.^ ^ ~ ~ ~ ~ ' / W T Z F G F A N I J T E O.Y I I S S S J I I F V V S I W E ' ' E T / ( ] ( ] ^ ) ` &.s.k.h.a.g.g.4.( ^ Z Z U / ^ ~ I I I R I S Y Y R Y Y T #.-.:./ L J F J U / $.%.( ( %.3.7.g.k.Y.U.Y.j.j.N.|.XXrXXXXX#XOX).M.f.f.k.I.j.j.j.j.^._.^.(._.`.`..X.X<XsXnXbXxX9X9XlX",
"LXLXLXFXNXFXNXmXmXmXfXuXuXuX=X@X|.OX@XOXOXOXOX+X+X{.A.Z.Z.Z.}.c.x.l.x.x.x.y.7.4.( E Y S A A b l h v q r h h f z x x x d g c c d d c c d 0 f f f f h f v h h h s s f s 7 9 0 h h k h 0 e h h h h h t j h w h j j q h h j w j h j A B H D A b j A A G G Y J I T P T W U U ' U J S N M A U / $.$.[ %.4.4.4.%.[ _ u.e.1.&.&.<.1.4.( ) #.<.$.( _ ] P ~ P U T T E Y I I S S S J V V S Y Y I F F S S F F I I I S S V R ' -.W U U ' ] [ ~ ' / / ) %.p.t.t.t.H.J.e._ _ ) K ! / T Z Z E E W U J P T O.T / ) ! #.$.$.#.K J I U / $.4.] / ] ] 1.3.7.g.P._.Y.U.U./.). X-X-X&X|.S.B.C.k.k.k.c.j.j.j.^.j.^.^././.`.`.`.'..XeXsXsXvXzXlX",
"PXPXKXHXFXFXSXmXmXjXqXuXuXuX4X$XOX$X#XOXOXOX[.[.[.[.Z.Z.Z.Z.c.c.x.l.x.x.a.r.5.~ Z J A A j b k v v h r h t r f z x x x d : : 9 d d g z 0 g k k k k k l l j k l l k k g 7 < < 7 f h h h h h t q h h h h h h j j q h h j h h h l b b n n H A A j b A D F I I L L L P T J K U T I Y N j M J P #.>.,.;.#.;.%.$.[ _ 1.1.3.u.%.[ ] <.$.#./ :.<.[ %.;.#.( / T T W Y Y G G S A G F V M N A F F V V N M N F F F R J V V Y E E Z Z I W ] [ ' E E ' ( [ t.5.*.1.u.J.p.1.[ ( %.4.2.#.( ~ $.%.$.$.( $.%.;.$.) $.) $.7.9.7.%.( ] ( ( ( ! K S S T [ ;.%.( ;.6.F.L.P.U.^._.#X=X4X@XS.B.B.j.l.x.U./.M.M.k./.^.U.j.j.j.0.^.^.'..XeXdXhXxXxX",
"LXLXPXLXFXmXnXmXSXnXqXuXuXuX4X@X$X$X+XOX+X[.D.[.A.Z.Z.Z.z.c.c.z.c.l.x.d.v.7.$.L u y M j w j j h v v h f 8 0 0 g d d 3 # # @ @ - - ; < - < 9 f z f k l l l w l l v v v 8 < < < c f l l q h q h 0 h q h h h l j h q h h e e j b b b b n A n w b b t y S S G G S G Y Y J J T O.O.Y D B S L P E :.>.;./ / / / ( $.;.1.2.J.4./ ~ ( ( ! / $.%.$.] :.-.-.T T Y I J I I F S F G S A y y y S y b M y y b M V S G S S S S I P I I I E ] ] ' J T -.] $.5.2._ ( &.7.7.7.1.$.%.9.t.w.&.` &.t.t.t.t.p.p.g.1.1.%.%.3.p.L.L.t.3.t.3.%.( U Z p p L #.;.#.P P T #.,.9.U.P.P./. XXXXXoX|.).C.s.k.Y.N.I././.Y././.M.f.0.0.j.(.`.'.>XeXpXpXcX",
"LXLXLXHXFXmXcXSXSXhXqXfXuX5X4X%X@X#X@XOX[.[.A.A.A.Z.Z.Z.Z.z.z.z.x.h.t.t.3.2.-.G M M b j j j h h h h h r 9 9 9 9 5 3 ; + @ + o o o o . . o @ # ; # g f k q e e 8 v v v h r < < , f l l q q q h h h h q q h h h h h h e j e j l j j h b b b b w b b y A H G S S H Y Y S N P O.R G A m H L S Y T ' -.P U U / ' ;.] ^ [ 9.7.#.K U T ! ( 2.$.( ( ( / P I Y R R J Y I S S H G G S M y w M y S N A y M M M S S A M S S I W T I I E ] ] K I Y ' ( ( ;.7.4.[ _ %.4.7.4.] [ 7.p.t.w.w.t.a.y.a.a.g.H.a.a.H.t.3.v.g.P.P.d.d.d.h.g.4.#.#.#.#.#.#.#.,.:./ Z J Q #.>.J.I.I.I.).%X@X%X`.M.j.f.f.k.U.j.N.N././.c.^.I.^._.`. X X X.XQ..XeX",
"GXGXGXDXmXnXvXSXSXhXqXfX6X3X2X%X@XOXOX{.}.A.Z.Z.Z.Z.Z.Z.c.z.c.x.x.x.t.*.*.#.Y A j w j b j j j h t r r 0 f d g g 3 3 2 1 1 1 2 4 > = * = * * @ o X % 3 g v 0 8 8 q q j j t 0 9 9 f f e f r q h q 0 q 0 0 q h v q 0 q q h h j j w t q j b b m b b b w b b A A H S D F N S H J J S j w n G S S S Y J J J I W / ' / Q ! >.,.T J U T / $.7.2.%.^ T J C V G R G Y J F S G F H H A y w w M b y M A A A b b N S A M A F F I Y I J Y ' ~ U I Y T ~ / ] <.%.;.[ ( ( %.<.%.[ { e.1.&.w.p.a.p.a.a.a.a.g.k.P.h.h.h.v.h.y.h.x.h.T.k.g.3.3.f.9.3.%.^ / R I I Y T / ( $.7.g.j.^.).OX|.#XoX(.j.h.g.k.f.k.k.k././._.^.I.U.M.^.^.^.M.0.M.`.",
"DXGXDXSXnXnXmXFXmXgXgXuX5X@X@X@X$XOXOX{.}.}.A.Z.Z.Z.c.z.z.c.x.x.T.T.h.*.$.T S w q w q h h k l k h q r 9 s 3 d : 2 ; * 1 1 1 1 = & & $ = = * X & $ X * ; - : 0 0 0 0 e j j r 0 0 9 0 0 f r h e h q 0 q q h q v v q q j h j l h q e w t b b b b y A y b b n n b n D A A A S S S A w q n S G Y I F S S S J U T ' K K K / / K J P / T ;.q.7.[ ~ K J p V J R Y I S S G S S A G A b w b w b w A w b A M M b A A A D S F F I F N S T / U I Y Y U ~ ^ ( ] ;.] ( ! ) ;.<.[ _ 5.%._ [ 5.5.7.9.s.t.1.3.h.x.h.h.a.t.t.v.v.H.h.T.x.x.l.x.d.d.h.g.4.( P F S T O.T T U ] <.9.j.k./.V.#X X X/.f.f.h.k.k.j.U.U.N.N.M.^.f.j.j.j.N.j.h.p.t."
};
