/* XPM */
static char *_aca5266d7ab4001d98ce6697721b56d[] = {
/* columns rows colors chars-per-pixel */
"78 39 152 2 ",
"   c #000000",
".  c #0C0603",
"X  c #0F0907",
"o  c #100705",
"O  c #130A06",
"+  c #1A0D07",
"@  c #150C08",
"#  c #190D08",
"$  c #22100A",
"%  c #2C140B",
"&  c #35190E",
"*  c #3C1B0E",
"=  c #351D11",
"-  c #3C1E12",
";  c #3D2112",
":  c #431E0F",
">  c #431E12",
",  c #442314",
"<  c #4C2515",
"1  c #4E2916",
"2  c #462418",
"3  c #4C2619",
"4  c #46281A",
"5  c #4E291A",
"6  c #522615",
"7  c #552916",
"8  c #5B2A16",
"9  c #54271A",
"0  c #542B1A",
"q  c #5B2D1B",
"w  c #5E3117",
"e  c #55321E",
"r  c #5D311D",
"t  c #622E1B",
"y  c #692F1C",
"u  c #64321D",
"i  c #6B341D",
"p  c #6D3A1E",
"a  c #72351E",
"s  c #73381F",
"d  c #79391F",
"f  c #532E21",
"g  c #5C2E21",
"h  c #573020",
"j  c #5C3321",
"k  c #643421",
"l  c #6B3522",
"z  c #653923",
"x  c #6C3923",
"c  c #673928",
"v  c #6C3C29",
"b  c #733621",
"n  c #7A3621",
"m  c #743B24",
"M  c #7B3C24",
"N  c #743E29",
"B  c #7B3E29",
"V  c #6E402A",
"C  c #774126",
"Z  c #7C4126",
"A  c #75412B",
"S  c #7C432A",
"D  c #7D482E",
"F  c #6F4230",
"G  c #7D4531",
"H  c #7E4831",
"J  c #833E24",
"K  c #883E27",
"L  c #813D29",
"P  c #834126",
"I  c #8B4326",
"U  c #83442B",
"Y  c #8B452A",
"T  c #85492E",
"R  c #8C492D",
"E  c #934525",
"W  c #92452B",
"Q  c #9A442A",
"!  c #934B2C",
"~  c #9B4C2D",
"^  c #9D502F",
"/  c #834531",
"(  c #844B32",
")  c #8C4C32",
"_  c #8A4E38",
"`  c #934D32",
"'  c #9B4E32",
"]  c #8C5136",
"[  c #8C5338",
"{  c #945234",
"}  c #9B5234",
"|  c #985934",
" . c #955439",
".. c #9B563A",
"X. c #96593A",
"o. c #9C5C3C",
"O. c #A24D2E",
"+. c #A84F2C",
"@. c #A1512E",
"#. c #AA522F",
"$. c #A34F33",
"%. c #A84F32",
"&. c #A25433",
"*. c #AB5534",
"=. c #A45937",
"-. c #AC5A36",
";. c #A25639",
":. c #AC563A",
">. c #A45B3C",
",. c #AB5B3B",
"<. c #B15634",
"1. c #B45A36",
"2. c #BA5C36",
"3. c #B35D3A",
"4. c #B95D39",
"5. c #A3613B",
"6. c #AC613D",
"7. c #B4623E",
"8. c #BD623C",
"9. c #C8633E",
"0. c #C06C3F",
"q. c #9C5B40",
"w. c #A55D40",
"e. c #A95E41",
"r. c #B15F40",
"t. c #A46343",
"y. c #AC6242",
"u. c #AB6946",
"i. c #B36443",
"p. c #BD6542",
"a. c #B56945",
"s. c #BB6D45",
"d. c #B36C4B",
"f. c #BB6E4C",
"g. c #B5704C",
"h. c #BD724A",
"j. c #C56743",
"k. c #CC6C43",
"l. c #C26D49",
"z. c #CC7144",
"x. c #C5734D",
"c. c #CA744D",
"v. c #C47A4C",
"b. c #CA7D4F",
"n. c #D1754B",
"m. c #D07A4E",
"M. c #CA7552",
"N. c #C17951",
"B. c #CF7C52",
"V. c #D57F53",
"C. c #D78256",
"Z. c #E38353",
/* pixels */
"                                                                                                                                                            ",
"                                                                                                                                                            ",
"                                                                                                                                                            ",
"          . . . . . o O O o o . . . . . O @ O X O @ O O o + + O O O O O O X o . o O + + # o . . . . . O O O o . . o O O O O X O O O O o . . . . o .         ",
"        $ : < 6 8 w a I I n y 7 6 8 6 m T U Z x m T Y P E @.~ R U M N K W J y 9 l L ' -.*.i < e e < 6 b b n B y w i n I ` U B m Y W ! C 7 , , < 0 -         ",
"        % 6 i m M P ~ E I K n u i m d W R P M l 8 i P ^ =.} S i w 7 y ' 1.+.K L ` &.,.p.&.l r x B b 9 l L M ) { Y ! &.-.*.$.` W ! -.:.! i 1 < 1 6 &         ",
"        = u m Z Z I @.I J M P m d I I I I U p 8 q d E ! i 6 - = & ; 6 n %.*.K W :.:.$.} U l j u b B M ! =.R S m Y 6.0.0.-.` T R ^ ,.7.R m z l i z ,         ",
"        ; m C Z P I ! W L ) R s a I R ! ! R M w t M E P w < - - * * - 6 n $.~ $.$.} { ,.&.R M y b R ..p.j.{ m q p R T { ' Z p P R ! } U m A G n i ; .       ",
"      . < P m e 8 i p x N _ G a n J Y Q ! U M m i M P R s 0 < 0 0 , ; , 6 J O.! d p m =.9.9.<.W I ,.p.j.i.T x N N q 1 w U P Z R { ! &.` C p m M V ;         ",
"        7 I N 0 z m r 0 r k z y U E ~ ^ J z i Z m y a ( S l w u q 0 0 w y a M t , : 7 J Q <.j.9.3.3...T l 0 u y 8 0 z Z D M m U ! I ! { R ! ' Y ] 5 .       ",
"        u &.R / T N q c A c 9 t I ~ E P M P J Z B x i U T l w 7 q p s U U M y 6 3 6 r 8 < 8 W 8.k.} r > > < 8 , , q D ) N j t Z R U a U } ,.r...} e .       ",
"      . l 4.$.{ ] x q c c g 3 k ^ 4.&.U Z ! I i M U Z ! ` m u w 0 m P ! ~ T r 0 k t 8 : : 1 t U { i 3 > > 3 q t y Z U p 0 f q s S U y z ] ;.y.r.' e         ",
"        8 #.O.R S m x g 6 e j / 3.8.:.! W Y m i I P p R $.! { T d M P ' } N 9 l l t t 8 8 y m t u z t l x p U ~ ~  .( k e 9 q l B B y q h N { o.{ 5         ",
"        * l l 0 1 0 3 e c G _ { ;.;.&.' *.:.} ` R Z a a P ^ =.! I R M n m z N U a y q 8 n Y E n M { W R W ! ^ ! Y / k u l i M M M M u e e q r z c = .       ",
"        % 1 , ; = , 2 j G U S N B B ..;.3.7.-...S m l 8 6 l T R P i q r g t k r y t q y M W Q Q ' &.! ! O.*.@.P m S B T ! ` } ` M N p u r h 9 5 e =         ",
"      . % 1 1 r A ( H ( { ) c q q y { p.p.3.,.} B x i u g q 7 7 1 1 6 7 6 q q e h 0 8 m I J W Q Q K Y =.<.<.#.Q ! ! =.,.6.;.) U z u x N z 0 0 N U 5         ",
"        2 N A R >.a.g.u.6.t.N e 9 0 M  .) Z S ) m w l N k 6 1 u z r u 1 , 0 j i 0 > 7 n W I M n a 8 q y i W ^ @.O.O.' ! ` ) ) T c x x m M m m ) } j         ",
"      . ; S N U 6.d.f.l.l.y.U M v 6 c A m Y ` } n z c b u 1 1 v l 0 r q 0 < 7 7 < 6 i K W I d b c 6 1 0 8 m R *.2.2.R y r N q...( U N G T M R w.>.h .       ",
"        0 { ` } a.7.*.<.e.;.' ` ) m D { ;.i.l.p.&.T G B u f < 0 3 0 u p w t w q u M W U n I ` / l r q 6 u y Y %.2.4.) U N N G _ ) / T ) Z y Z  ...f         ",
"        p -.} 5.3.@.~ ~ U ` ` K { q.X.6.i.i.=.` ;.! M l 0 q q 3 1 r m M Z U M m n P T l l Z R R m N l x R ! :.4.2.4.=...` _ U U / / U U Z ] { Y U 3         ",
"        x ,.T A U S B m i S S l U / H ] ;.R l t T } P u r t t t 8 r x U ) ` R ] ) G N m S m y J W ~ ~ ~ &.! L J ! ~ -.7.,.;. .U C m S A B R ` R D * .       ",
"      . e T A x q 1 0 8 7 8 t y q 6 , 3 e q 6 8 i ' *.! U m m N m m M T ..{ ] ' >.{ m i m b M ` %.#.*.@.P 8 > > > 8 Y 3.y.` N V ( X.` ) T ) {  .Z ,         ",
"        = r h 5 * * < 7 0 1 e j , > 2 6 1 q r q y W #.2.1.} T B U T / B U ( ] { y.;.m m D S m M K ! @.P 6 - - & > q M ! W S c q x ( { ..}  .) S Z 3         ",
"        = u u < < q r l q > 3 j 3 2 v G x s Y B M ! ~ 4.4.7.{ T R ` { / P ] { >.s.d.T B l 8 q 7 7 s U m q 2 > , 9 y d I d m / M U o.t.X.H v r C S *         ",
"        3 Y M y x l x m r , , 0 q u / ( k y T P Y ! P ! =.a.5.;.y.>.! T ` | 6.p.c.M.' i w t t h g 9 y l g u z t l J K P M P } $.:.u. .( x 0 i U a %         ",
"        q ' K y l t u B A e 0 : , g c c N ( u q U P P Y =.s.s.a.i.) R ..5.a.c.n.c.j...n a m l c b M / F x L / M m n Y U P =.7.-.<.,.] z j N ` &.E >         ",
"      . 6 ' J m y 8 j x c j k w < , : t ] q.N N T ] y.i.s.b.v.v.f...R o.N.C.Z.9.k.x.>.U Y J l k l B B / R W Y B m B L b i m U ! $.i.e.) S S ! ~ $.q .       ",
"        3 R P b n i q 0 h e V m a a a B T T A A m ..i.7.l.h.a.l.M.6.{ 6.C.Z.Z.z.m.B.6.` I M l l k 0 q / :.%.$.} } K q 3 1 7 t m T r.r.;.` R P i U e         ",
"      . 2 m y t y t q 0 5 e x P P K n i q 0 4 3 S 6.=.6.i.u.w.,.p.5.R o.v.C.V.c.h.g.u.X.R J M m x x y L } &.,.3.` b y y y l v N G } ' B l b M a n 3         ",
"        4 i 8 y m l x 0 e r m ] Z 7 1 1 5 f 5 w ] ....| } S A S [ ) p s ! i.d.o.( S o.y.} Y K U B m l k y b ! -.L x z m m y 7 1 u U ' Y y b J J l %         ",
"        - z y 6 6 q 0 e A X.{ [ r > , 8 S A i z C D T T ] T A H A u x U Y ` C j 0 p { ..} R K U N u q 3 9 c ' e.A 0 > 2 0 k 0 h r n ' Y l n m V 9 $         ",
"        % 8 y q 7 7 u ( 5.5.t.[ 0 * : y T U ( { U R ! ` { ..) { ] n P R R Z 0 3 2 2 1 t m M b t 8 9 9 t m M } q.z 1 2 ; 2 q t N N n ` R m m S j ; $         ",
"        % q l l p s Z | 5.| o.] x 7 m ( { ] ] X.[ ] I P T ] [ ' } ! I ! ` m 7 < e 3 , 9 i m m m m N l b L U { ..N c x g q r l M ! &.,.` n M U y 8 &         ",
"        * m S A S C Z U ` { T R T U X.g.t.] ( D S ( ) T m z m m R ] R ^ 5.S 0 e v l r y n m m l v l y N b i R r.} } ' Y U L W '  .' >.T l m U U / ,         ",
"        1 i q F A M d Y R Z P ) ] S ( X.[ H H H V C D C C u 0 0 z r w i C p t x m i y y y 8 0 < 0 8 8 i z 0 q U =.,.;.' { R U ' ! ! T r q y T R U 2 .       ",
"        . . . X X O o o @ o X + @ X @ @ X @ @ @ O X O X o o . . o . . . . o o o X O X o X . . . . o o o o o . O # # # # # @ O + O O O . . o O @ O .         ",
"                                                                                                                                                            ",
"                                                                                                                                                            ",
"                                                                                                                                                            "
};
