/* XPM */
static char *a1c905fcadcc4ca6ac38246d87198750[] = {
/* columns rows colors chars-per-pixel */
"78 39 165 2 ",
"   c #030101",
".  c #090002",
"X  c #050A05",
"o  c #010109",
"O  c #0A0109",
"+  c #00090B",
"@  c #120000",
"#  c #180000",
"$  c #1D0906",
"%  c #140D0D",
"&  c #1C0E0E",
"*  c #1A110D",
"=  c #170E11",
"-  c #1D0E12",
";  c #1B1313",
":  c #240904",
">  c #2A0904",
",  c #200E0B",
"<  c #220C11",
"1  c #231615",
"2  c #2A1716",
"3  c #221817",
"4  c #26171C",
"5  c #2A171A",
"6  c #22181A",
"7  c #261721",
"8  c #5E250E",
"9  c #402014",
"0  c #5B2612",
"q  c #5A2815",
"w  c #632409",
"e  c #622912",
"r  c #663628",
"t  c #703D2A",
"y  c #7E4023",
"u  c #7C4229",
"i  c #734A40",
"p  c #67504C",
"a  c #7D5953",
"s  c #7C5D5B",
"d  c #833F15",
"f  c #853E1A",
"g  c #8A3D1D",
"h  c #8D3F25",
"j  c #824117",
"k  c #824019",
"l  c #BF5104",
"z  c #BD530D",
"x  c #AB4717",
"c  c #AA4816",
"v  c #AB4719",
"b  c #A6491E",
"n  c #A9481A",
"m  c #B64E17",
"M  c #BE4F12",
"N  c #B64F1D",
"B  c #BD4D1C",
"V  c #AF5319",
"C  c #B15216",
"Z  c #BE5112",
"A  c #B3511B",
"S  c #BB521E",
"D  c #964A2F",
"F  c #A44A22",
"G  c #A34C2A",
"H  c #AD4D2D",
"J  c #B64D21",
"K  c #BE4E25",
"L  c #AD5125",
"P  c #AA522A",
"I  c #B55124",
"U  c #BB5123",
"Y  c #B5552E",
"T  c #A85531",
"R  c #CA4703",
"E  c #C64E06",
"W  c #CC4B05",
"Q  c #C54D0E",
"!  c #CA4C0B",
"~  c #D24903",
"^  c #D1490A",
"/  c #C25004",
"(  c #C2500A",
")  c #C95108",
"_  c #C34D13",
"`  c #CB4B10",
"'  c #C4471B",
"]  c #C34D1A",
"[  c #CC4A1A",
"{  c #D24C13",
"}  c #C15013",
"|  c #C0501B",
" . c #C96E3F",
".. c #815F5A",
"X. c #98624B",
"o. c #B4684D",
"O. c #836260",
"+. c #8B736E",
"@. c #CD6B43",
"#. c #C76F4E",
"$. c #CD6B49",
"%. c #D06A41",
"&. c #CA7046",
"*. c #CD724D",
"=. c #D3774E",
"-. c #CE7552",
";. c #C77959",
":. c #CF795A",
">. c #D37651",
",. c #B98672",
"<. c #BF907F",
"1. c #D08C78",
"2. c #E29176",
"3. c #E79D77",
"4. c #E99B76",
"5. c #EA9A7B",
"6. c #9B8584",
"7. c #B79086",
"8. c #BA9185",
"9. c #BA968E",
"0. c #BA9694",
"q. c #BF9995",
"w. c #BF9B9C",
"e. c #C49794",
"r. c #C19995",
"t. c #C19A99",
"y. c #E79C81",
"u. c #EA9C81",
"i. c #CDA69C",
"p. c #CFA89D",
"a. c #D2A697",
"s. c #D3A59B",
"d. c #E9A181",
"f. c #E6A89A",
"g. c #F3AC92",
"h. c #F7B496",
"j. c #F8B495",
"k. c #F8B299",
"l. c #CDA7A2",
"z. c #CCA8A3",
"x. c #CDA6A8",
"c. c #CDAEAB",
"v. c #D2A4A3",
"b. c #D1AAA0",
"n. c #DFAAA5",
"m. c #E8AFA7",
"M. c #E2ADA9",
"N. c #E7B2AC",
"B. c #E8B3AB",
"V. c #FCB5A3",
"C. c #FEBDA6",
"Z. c #F7BEAB",
"A. c #FFBEAD",
"S. c #F5BEB0",
"D. c #FEBEB3",
"F. c #FFBFBA",
"G. c #FFC1A5",
"H. c #FFC1AB",
"J. c #FEC2B6",
"K. c #FFCAB6",
"L. c #FEC3BA",
"P. c #FFCABD",
"I. c #FFC7C0",
"U. c #FECAC3",
"Y. c #FFD1CB",
/* pixels */
"                                                .                             .               . O O o .     .         O O O O .         .     O             ",
"  X X       . . . . . . . . . . . o . . . . . . . . . . .   . . . . . O . . . . . . . . . . . o o .                     o o o               O     X     X   ",
"  X     = < < - < < < < < < < < < < - = < < < < < < < < < < < < < < < < < < < < < < < < < < < < < & < - * * * * * * ; ; ; = = = * ; ; * - - 7 - & %   X X   ",
"      ; 6.t.w.0.e.e.9.e.e.e.e.t.t.w.w.0.t.e.e.e.e.e.e.e.e.e.e.e.e.e.e.e.e.e.e.e.e.e.e.0.e.e.e.e.r.r.r.r.r.r.q.0.r.q.q.q.t.q.q.q.q.q.q.0.q.0.w.t.9.+.%       ",
"      3 c.Y.P.P.U.L.U.L.L.I.I.U.U.U.U.U.U.I.P.L.K.L.I.I.I.I.I.I.I.P.I.P.U.U.I.I.I.I.I.P.I.I.I.I.P.L.I.I.I.I.P.L.I.I.L.P.I.I.I.I.L.U.P.I.U.U.U.U.P.9.;     . ",
"      3 z.U.L.J.J.J.J.J.J.J.J.J.S.I.I.L.J.J.J.J.J.J.L.L.L.J.L.L.F.L.F.L.J.J.L.J.J.L.L.L.J.L.L.J.L.L.L.J.L.J.L.L.L.F.L.L.J.L.J.F.L.F.F.L.F.F.P.L.S.7.;     . ",
"      3 z.U.J.L.J.J.J.J.D.L.F.L.S.I.L.L.L.L.J.F.J.J.L.F.F.L.D.D.S.L.F.L.F.L.F.F.F.L.L.F.J.F.J.L.J.L.L.F.F.L.F.F.L.F.F.L.L.D.L.F.S.L.L.F.L.L.L.J.S.8.;     . ",
"      1 i.P.J.J.J.D.D.D.L.D.D.L.L.L.L.L.L.L.J.F.J.J.J.J.J.L.L.L.J.L.J.J.J.J.L.J.J.J.J.L.L.J.J.L.J.J.J.L.L.J.J.J.J.J.J.J.L.L.L.J.L.J.L.J.L.L.J.J.S.8.1     . ",
".     1 i.P.L.L.J.D.J.J.J.J.J.J.J.J.L.J.L.J.J.J.J.L.J.J.J.J.J.J.J.J.J.J.J.J.J.L.J.J.J.J.J.J.J.J.K.J.J.J.J.J.J.J.J.J.J.J.J.J.K.J.J.J.J.L.J.C.A.A.Z.<.1       ",
"      3 i.P.L.L.J.D.J.J.J.J.H.H.A.A.H.A.H.H.A.A.H.H.H.G.G.H.G.G.G.H.H.G.G.G.H.G.G.H.H.H.G.G.G.H.G.H.H.H.G.H.H.G.H.H.H.H.G.H.G.G.H.G.G.G.C.A.G.C.V.<.1   X . ",
"      3 i.P.L.L.J.J.J.L.D.V.k.k.k.k.j.j.k.j.j.k.h.h.j.j.h.j.j.j.j.h.h.h.j.j.j.j.j.j.j.j.j.j.j.j.j.j.j.j.h.j.j.j.h.j.j.j.j.h.j.j.j.j.j.j.j.j.j.j.g.,.1   .   ",
"      3 z.U.I.S.D.J.L.J.C.g.2.:.>.>.=.=.=.=.=.>.>.>.=.=.=.>.=.=.=.=.=.>.=.=.=.=.=.=.=.=.=.=.=.=.=.=.=.=.=.>.=.=.*.=.=.=.=.=.=.=.=.=.=.=.=.*.*.-.;.X.,     . ",
"      6 z.U.I.L.J.L.J.H.A.y.#.Y I K U B | | | B U U S S S S S S S S B S S S S S S S S S S S S S S S S S S S S J S B S S S S S S U S S J U J I Y T u $     . ",
"      ; z.U.I.L.L.L.J.D.A.5.$.I B _ ` ` ` ! ` ` ` _ _ _ } Q } } _ _ } } _ _ } } _ _ } } } Q } ' _ _ _ _ M Q } Q } } } } _ _ Z _ _ Q } M _ B S I P y $       ",
"      3 z.U.I.I.L.L.J.D.G.5.@.U _ ` ^ ~ ~ ^ ^ ! ! ! ! ! ! Q Q ! Q Q E ! Q E ! ! ) ! Q ! E E Q E ! ! Q E E ` E W ! Q E ! Q ! ! Q E Q ! ! Q _ _ S L y $     . ",
"o     6 z.U.L.I.L.L.J.H.C.5.%.| Q ! ~ ~ ~ ~ ~ ^ ! ! W E W W W W W W W W W W W W E W W W W ^ W W W W W E W ! W W W W W W W W W W W W W W ! ` } } L k :       ",
"      1 l.U.L.P.L.L.L.D.G.5.%.| Q ^ ~ ~ ~ ~ ^ ! ! ! ! W W W ^ W W W W ! W W W W W W W ! W W W W W W W W W W ! W W W W W W W W W W W W W W W W } A f :       ",
"      2 i.P.J.L.L.L.J.D.G.5.%.| Q ! ~ ~ ~ ~ ` Q Q ` ` ! E ^ ! ! ! ^ ! ! ! ! ! ! ^ ! ! ! ! ! ^ ! ^ E ! ^ ! ! ^ ! W ! ) ^ ^ ! ^ ! ! W ^ W ~ ~ W Q m f :     X ",
"      2 s.P.J.L.F.J.D.D.A.5.@.B Q ! W W ^ ` Q ] ] _ Q ! ` ! ` ! ! Q ! ! ! ! ! ` ! ! ` ! ! ! ! ` Q ` ! ! ! ! ! ! ! ! ! Q Q ` ! Q ` ` ` R W ~ ~ ! m g :       ",
"      2 s.P.J.L.J.J.F.D.G.5.@.K ] ` ^ ^ ` Q _ ] B ] _ Q ! Q Q Q ` Q Q ` Q ` Q ! Q ` Q ` Q Q Q Q Q ` Q Q _ ` Q Q ` Q ` _ Q Q ` Q Q Q Q ` W ~ ~ ! M d :     . ",
"      5 v.U.L.F.F.F.L.D.A.u.%.U ] ` ^ ^ ! ^ ` ' Q ' Q ! ` Q ` Q Q ! Q ) ! ! Q Q Q ! ! Q ` E Q ! ! Q Q ! Q ! ! Q ! Q ! Q ) Q ) ! ` E Q ! ! ~ W ` m d :       ",
"      4 v.U.F.I.F.I.I.D.A.u.$.K ] Q ^ ^ ^ ^ ! ` ` ` E ! ! E W E ) ! ! ! E Q ! ! ) ! ! ) E ! ! ! ! ) ! ! ! ) ! Q ! ! ) ! ! ! ! ! E ! ! ! ! ! ` ] I f :     X ",
"  o   4 v.U.I.F.J.J.J.A.C.5.&.S ' Q ^ W W ^ W ! ` ! ! ! ! ! ! ! ! ! ! ! ` ! ! ! ! ! ! ! ! ! ! ! ! ! ! ! ! ! ! ! ! ! ! ! ! ! ! ! ! ! ! ! ^ ^ ` ] I f : .     ",
"      3 i.P.J.J.J.J.J.A.G.5. .S M ( E W E W E E Q Q Q ` ` Q ` ` ` ! Q { ` ` Q ` ` Q ` ` ` Q ` ` ` ` ` Q ` Q ` ` ` Q ` Q ` ` ` ` ` Q ` ` ` ` Q ] J g > .   . ",
"      3 a.K.H.J.H.K.H.G.G.4. .S M ( E W E E ( ( Q Q Q Q Q Q Q Q Q Q Q Q Q Q _ Q Q Q Q Q Q Q Q Q Q Q Q Q Q Q Q Q Q Q Q Q Q Q Q _ Q Q Q Q ` ! Q _ N g > @ . @ ",
"      3 a.K.J.H.H.J.H.G.C.4. .B } Q ! E W E Q Q Z Q z z Q ( Z ( _ ( ( Q ( ( ( ( ( ( Q Z ( Q Z ( ( ( Z ( ( Q Z ( ( ( ( ( ( ( ( Q ( Q ( ( ( ) Q _ N g > @ @ @ ",
"      1 s.J.D.S.D.D.J.A.C.4.%.U ] Q ` W ` ! ` _ } Q Q / / ( ( ( ( / ) / ( ( ( ( ( ( ( ( ( / ( ( ( / ( ( / ( E ( ( ( ( ( ( ( ( ( ( / ( ( ( / ( z A f > . O @ ",
"      4 v.I.F.F.D.D.D.A.A.u.$.K ' ` ` ^ ^ ` ` ` Q Q Q W ! ! E R Q E Q E E ! ! ! E W ! R E ! ! W ! ! W ! ! E ! E ! ! E ! E E ! ! W E E Q E / l z V d : . . O ",
"  o o 4 x.U.L.I.F.F.L.D.A.5.@.K ] ` ` ^ ` ^ ^ _ [ Q ! ! ! ! ! ^ ! ! ` ^ ^ ^ ! ! R ^ ` ` ` ^ ! ^ ! ! ! ^ ! ! ^ ` ^ ^ ! ! ^ ! ^ ! ! ^ ! ^ E / / z A j :     . ",
"  o o 7 x.U.L.I.U.I.J.Z.J.y.*.U B _ ! W ! ! ) ) ` ` ` ` ` ^ ` ` ` ^ ` ` ! { ` ^ ` ! ` ^ ` ` ^ ` ^ ` ` ` ` ` ` ^ ` ` ^ ` ! { { ! ` ` ` ^ ) R ) _ C d :       ",
". o   4 x.U.L.L.I.L.L.Z.H.d.&.A M ( E W R R E E E E ` Q ` ` Q ` ` Q Q ` ` Q Q Q ` Q ` Q Q ` Q Q _ ` ` ` Q ` ` Q Q ` Q ` Q Q Q ` Q ` Q E W W ^ Q m g >       ",
"      6 l.P.L.L.F.J.J.H.H.3.&.S M Q W ~ ~ W W W W Q Q Q Q Q Q Q Q Q Q Q Q Q Q Q Q Q Q Q Q Q Q Q Q Q E Q Q Q Q Q Q Q Q Q Q Q Q Q Q Q Q Q ^ ^ { ` N g > .     ",
"      3 p.P.J.J.A.J.J.H.G.4.%.U ' E W W W W W ! Q Q ( ( Q ( ( ( Q ( Q ( ( Q ( ( ( ( Q ( ( ( ( Q ( ( ( Q ( ( ( Q ( ( ( ( ( ( Q ( ( ( ( Q Q ` [ ' J h < . . . ",
"      3 b.P.L.P.D.L.P.L.G.u.*.I N ] Q Q E } } _ M M M M Z M Z _ M M M M M M M M M M M M M M M M M M M M M Z M M M M M M } M M M M M M _ ] B K J H h :     . ",
"      ; 9.B.m.B.n.M.N.N.f.1.o.G b v v x x x F F F b n c c c c c c c c c c c c c c c c c c c c c c c c c c c c c c c c c c c c c c c c n b F H G D t $       ",
"      % p ....O.s s O.s a i r q 8 w w w w w w 0 0 8 w w w w w w w w w w w w w w w w w w w w w w w w w w w w w w w w w w w w w w w w w w w 8 e e q 9 O   o   ",
"  o o   . . . O         . . . @ @ # # @ @ @ . . . . . @ @ @ @ @ @ @ @ . . . @ @ @ @ @ @ . @ @ . @ @ . @ @ @ . @ @ . @ . @ . @ @ . @ @ @ @ @ # # @ . X + + o ",
"X o O o       o o o o o o   .   . . . . .                                           .                                                   . @ . . .   + + + o ",
"  O O     o o   o o o     o   .   . . .   .     o         . . . .             O O O O .     X         X X     X       X                   . . . . .   o o o "
};
