/* XPM */
static char *acec72c2a9394cafc68143a8e204c402[] = {
/* columns rows colors chars-per-pixel */
"14 7 95 2 ",
"   c #2E2523",
".  c #80605D",
"X  c #846261",
"o  c #846362",
"O  c #856360",
"+  c #856361",
"@  c #856361",
"#  c #856361",
"$  c #846362",
"%  c #826460",
"&  c #826462",
"*  c #826462",
"=  c #7D615F",
"-  c #2D2320",
";  c #5A4643",
":  c #F7BEB3",
">  c #FABBAD",
",  c #F6B4A3",
"<  c #F7B4A2",
"1  c #F6B5A1",
"2  c #F6B5A1",
"3  c #F6B5A1",
"4  c #F6B5A1",
"5  c #F6B5A1",
"6  c #F6B5A1",
"7  c #F7B5A2",
"8  c #EDAE9B",
"9  c #543C35",
"0  c #594644",
"q  c #F7BFB5",
"w  c #E48F6F",
"e  c #CF5A23",
"r  c #CE5C25",
"t  c #CD5D24",
"y  c #CD5D24",
"u  c #CD5D24",
"i  c #CD5D24",
"p  c #CD5D24",
"a  c #CD5D24",
"s  c #CE5D24",
"d  c #C25B28",
"f  c #432113",
"g  c #5B4543",
"h  c #F8BEB5",
"j  c #E08663",
"k  c #CA4909",
"l  c #C84B0D",
"z  c #C94B0A",
"x  c #C94B0A",
"c  c #C94B0A",
"v  c #C94B0A",
"b  c #CA4B09",
"n  c #C2480B",
"m  c #431B09",
"M  c #5A4643",
"N  c #F9BEB1",
"B  c #DF8863",
"V  c #C74B0B",
"C  c #C74D0D",
"Z  c #C74D0C",
"A  c #C74D0C",
"S  c #C74D0C",
"D  c #C74D0C",
"F  c #C84D0B",
"G  c #BE4B0E",
"H  c #461B0A",
"J  c #594544",
"K  c #F4BCB2",
"L  c #DB8664",
"P  c #C44A0B",
"I  c #C44B0D",
"U  c #C34C0E",
"Y  c #C34C0D",
"T  c #C34C0D",
"R  c #C34C0D",
"E  c #C34C0D",
"W  c #C34C0D",
"Q  c #C44C0D",
"!  c #BB4A10",
"~  c #431B0A",
"^  c #291E1F",
"/  c #6B514F",
"(  c #623A2E",
")  c #582008",
"_  c #54210A",
"`  c #562108",
"'  c #562108",
"]  c #562109",
"[  c #552209",
"{  c #552208",
"}  c #552208",
"|  c #552208",
" . c #54210D",
".. c #1E0D0A",
"X. c gray100",
/* pixels */
"  . X o O + @ # $ % & * = - ",
"; : > , < 1 2 3 4 5 6 7 8 9 ",
"0 q w e r t y u i p a s d f ",
"g h j k l z x c c c v b n m ",
"M N B V C Z A S S S D F G H ",
"J K L P I U Y T R E W Q ! ~ ",
"^ / ( ) _ ` ' ] [ { } |  ..."
};
