/* XPM */
static char *_3a57310fac64bd9bd611348a820e1a3[] = {
/* columns rows colors chars-per-pixel */
"78 39 123 2 ",
"   c #000000",
".  c #080707",
"X  c #080807",
"o  c #070808",
"O  c #0B0B0B",
"+  c #282625",
"@  c #2B2824",
"#  c #322E2B",
"$  c #33312F",
"%  c #343433",
"&  c #393634",
"*  c #3D3935",
"=  c #3D3D3D",
"-  c #433D37",
";  c #433E3A",
":  c #45413D",
">  c #49423C",
",  c #3D3F40",
"<  c #454443",
"1  c #4C4642",
"2  c #474847",
"3  c #4D4A45",
"4  c #454749",
"5  c #474B4D",
"6  c #4C4B4A",
"7  c #514B46",
"8  c #534E4B",
"9  c #55514D",
"0  c #59534E",
"q  c #4D4E51",
"w  c #504E51",
"e  c #4F5051",
"r  c #555352",
"t  c #5B5652",
"y  c #575857",
"u  c #5D5955",
"i  c #5D5C5A",
"p  c #60574F",
"a  c #625B55",
"s  c #625E5A",
"d  c #685E5A",
"f  c #676257",
"g  c #64615D",
"h  c #6B635D",
"j  c #6B695F",
"k  c #70665F",
"l  c #615F62",
"z  c #5E6060",
"x  c #656362",
"c  c #6A6562",
"v  c #676865",
"b  c #6D6965",
"n  c #67676A",
"m  c #6B676A",
"M  c #676869",
"N  c #6D6B6A",
"B  c #726B65",
"V  c #726E6B",
"C  c #786F6A",
"Z  c #74716D",
"A  c #7A736D",
"S  c #6F6F72",
"D  c #706E71",
"F  c #6F7071",
"G  c #757372",
"H  c #7A7573",
"J  c #767875",
"K  c #7C7975",
"L  c #76777A",
"P  c #7A7679",
"I  c #77797A",
"U  c #7D7C7B",
"Y  c #817674",
"T  c #827B76",
"R  c #887F77",
"E  c #837E7B",
"W  c #887F79",
"Q  c #7F807F",
"!  c #84817D",
"~  c #8B837C",
"^  c #7C7D81",
"/  c #817E82",
"(  c #7F8182",
")  c #848383",
"_  c #898683",
"`  c #858887",
"'  c #8C8986",
"]  c #858689",
"[  c #898789",
"{  c #86898A",
"}  c #8C8C8B",
"|  c #908A85",
" . c #928D8A",
".. c #8E908F",
"X. c #94918D",
"o. c #99918D",
"O. c #8D8E91",
"+. c #918F91",
"@. c #8E9193",
"#. c #8C929A",
"$. c #939493",
"%. c #999492",
"&. c #969897",
"*. c #9B9996",
"=. c #949699",
"-. c #96999A",
";. c #9B9B9B",
":. c #A59B95",
">. c #A29D9A",
",. c #9EA19F",
"<. c #A3A19E",
"1. c #A8A29D",
"2. c #9B9EA1",
"3. c #9DA1A3",
"4. c #A3A3A2",
"5. c #AAA5A3",
"6. c #A6A8A7",
"7. c #ABA9A6",
"8. c #A5A6A9",
"9. c #A7A9A8",
"0. c #ABACAA",
"q. c #B0ACAA",
"w. c #B4B1AF",
/* pixels */
"                                                                                                                                                            ",
"                                                                                                                                                            ",
"                                                                                                                      .                                     ",
"        X O O X O O X . X X O X X . O . O O O X X X X X O O O X X O X X X O X X O O O X O O O O X X o O O X . o X X O O O O O O O O O O O O X X O X         ",
"        2 U G c C W 8 - 9 s V b h s x s x M Z a d s p s V c x b m m x t t z t i N F v z F F z z s t 1 J *.c 1 3 3 y ! ! D L ^ ^ H V U { K c 8 a %.x         ",
"        e @.E G c W R t t s b b c c V V x v V V J G D V Z Z G P ^ E G l x m x V Q Q Q Z Q Q G J G a 8 E :.B 9 t x ) ! H ( #.=.-.+.!  .' H k j  .<.6         ",
"        < H b V b h Y  .V 8 8 0 8 9 a t 9 t s s s s s s s b V d s s s s r t u l N N F B Z N Z Z m s 9 G  .c t M ' ' V I #.3.2.3.*.] ] T V V %.%.G &         ",
"        6 ) Z P H c c >. .8 ; ; * > 1 ; - : 1 > 1 1 1 1 1 0 u 1 ; 1 1 7 7 8 t t t r p u p 0 f j p t 9 g H p 8 / X.b x L O.8.8.9.;.E K Z Z %.<.K G =         ",
"        9 ..Q _ K D x c H C r 9 3 g g 3 3 8 0 u t t 9 8 9 h V s u a s s s B V c x c V Z Z B j B b h s c Z h x ) J x L ] { ;.6.0.$.C V C $.o.G J I =         ",
"        y &.} ..' Q G x s T  .' _ *.<.! ! ~ ' X.| | | } _ *.>._ | '  .| ! X.%.' @.*.;.>.>.o. .' o._ C J K T k B m S ] -.} ] ;.4.~ c C X.%.T J ( ( ,         ",
"        y *.&.X.~ ! U D i b ! B V  .X.V V C H T A Y A R V ~ _ k c h c k a A R B A R ~ R K C B b B Y c C C f 9 h G I @.2.&.} _ T B b %.%.W ) ) =.=.2         ",
"        2 } $.' { } _ Z s b A 0 9 i s i g g i u g k g s s g f p a t t t 9 9 t u c b B m Z Z b g h d d T K p t m ! ) @.2.$._ V x c _ %.! ] } } 3.-.2         ",
"        6 } X.&.*.@.W V i b K c n x n S I I S M D J I I G v g x v v l l s u i L ^ ^ { O.] ^ U U E B c *.+.s t m ] } } +.P B s c  .%.E ) @.*.O.;.@.<         ",
"        e @.&.3.2.$.E b i b K b F F L ] { @.O.^ U ( ] ' U G D J ] [ / P N x i F I ( } X.[ ) ) ! E b s | 5.V y m E ) ) K c t f | X.K ! } ;.2.#.3.;.e         ",
"        6 %.<.3.;.*._ Z x b Y x v F P ) ] } ] { $.} ) E ) ) ( @.$.+.@.[ ^ D x V H K } @.@.Q ! Z c g s Y _ V l V H G G V t u | :.C Z { 3.3.-.=.,.9.z         ",
"        : T T K P J A C g K X.m g G P P P I J ' ;.&.! K ' ` { -.=.O.@.-.$.) D J H Q ....) V g p 9 f A K h s x V G C h s s E o.H b ( *.0.6.4.3.,.8.x         ",
"        6 ' ) ! ) ] T V u Z o.b a N K E K C Z E } ' ! ! _ ) { =...{ ..-.&.{ D J Q ` _ ~ H h 0 1 u A K g y v b Z G B a s _ X.V m J ] ,.9.4.3.4.,.*.u         ",
"        6 { } } } &.' Z s b K h g m Z I E G G ) $.%.~ ~ _ ) ( } ..} ....} Q Z ) ` =.~ U H c p l ~ | B x D H C Z V x b E _ V c J U I +.%.$.&.$. .' 8         ",
"        < U ) { ' ` E V a v ) C c D I ] @.@.] @.,.&.X.} ......$.*...) { } K V I ) ..~ A C g m  .o.A g b Z V V s t s X.;.V v G ) U J ) ' [ } ' ! _ 6         ",
"        % f c b V x s a r Z 5.H s G Q ] ] $.O.U ! Q ! _ ....-.;.$.{ Q { @.Q G ) ) ' ! b j C o.o.k b J J Z C V 9 9 C ' ! Z G ) _ T T ' X. .' X._ ' 9         ",
"        @ 7 7 7 8 8 7 7 3 ' 7.f u J ^ } { O.@.[ K K ` @.&.@.&.&...} ` $.$.) J ! Q K j f H >.>.k u Z ) U K C V x _ %.Z b G E / ! ! ! | o.o.o.o. ._ 3         ",
"        $ y g g s u t p s H ! a t m ^ } ' ( ) } ' ' @.;.4.@.P P { ` ! ` ! K b j f f 9 x >.5.A s b Z K H b g b ~ <.! c Z K ) / ^ I ` $.;.8.8.4.;.o.6         ",
"        6 _ } X. ._ ) ~ T T ~ h r i V ) / G K U ) } ..=.3.@.J Z K K Z J K P G u 7 8 i X.q.Y 0 s V G C b h s D U H g b U ! ) } [ I T T ! ) _ _ E K :         ",
"        - C C A A C ~ ~ h f Y A u 8 t x Z Z J I L ) @.' ` ! Z b Z G N Z I P V s 8 f *.%.V u u l N Z H c g V H K H v L ] ' U E [ H Q _ ) ! P J Z Z =         ",
"        % u u t 0 9 d s 0 < 8 C H 9 1 8 0 a B B N Z H N g a r t u u t 0 0 p 0 8 6 J 1.A 9 s s i s c b b Z A B K G m F ) [ ' ~ U K ) @.@.+.[ [ ^ I <         ",
"        , Z V m c l v G M y 6 t A C 7 > > 1 8 0 0 0 0 0 8 < : : > 8 0 8 > ; ; 1 g P o.b 9 y 8 0 t u g B K b h Z C g x I ) ;.$.J E [ $.+.$.' } ] ) <         ",
"        : H V Z G G D V h t 6 3 r Z b u u y z g g f f u x i r 9 t c G Z s w 8 u s a ~ H v x s u 8 r c ! C k j A C s x U ) =...! +.+.;.*.,.=.;.;.} 4         ",
"        * V a u a s t 7 7 1 < 4 8 g ! ..@.} &.*.-.-.;.&.$...( J H ! o.+.%.$.[ H 9 t A H H Y W v y c C T B b H H V a M U ! $.$.` ,.} =.@.>.4.-.$.' <         ",
"        * x t 9 r t t u V P Y H J _ :.1.5.9.0.0.0.0.0.0.w.q.<.;.%.%.%.%.<.5.*.o.C B Y C C T W b b A f h Z Q J K A i j Q Q ~ ' Q $.} $.X.&.%.@.' ) <         ",
"        & x Z ~ ] E P / %./ T Y A H A B g b N Z Z j b v B K H K ^ D D P D a p d t h C B B W Y C m c p s Z Q N ! K i N ! ! Q ! Q ) ] ' @.@.$.@.} ) <         ",
"        % D } o.R T H Y %.! V B B b h b z y u g z i z g 9 2 < 2 q 5 5 w w w l 0 9 s C d a B B C C C Z K Z v B Z Z u v Q { { } ! ) E ) $.;.&.*.$.' 4         ",
"        1  .K f f f p d  .o.~ R R ! A K Q V N J Z A A Z Q ' ! ' _ /  .%.+.|  ./ C K Y 7 ; d b C Z K _ T B N B J Z p v Q &.;.` J ] ) ) @.*.%.X.%._ :         ",
"        9 ~ V K ] { J V H A B j f T ! ~ ~ ~ ~ ~ ~ ~ ~ ~ _ R k B B C | W ~ C a 0 9 ~  .9 1 b V d d V H V c N G T C 0 s P X.} Z b K Q ` ' ! K A K C &         ",
"        * c J #.-.3.+.' ) P B j V T K G k h B h f k k C B s 1 6 w s s a c w = & < ' %.y 8 V V V C V Z Z s i c V k 8 y V H Z N G ! ` } ) b u 8 0 0 #         ",
"        # f L #.#.=.} ] ) U b a N ! K A h k A G A H A H Z s 5 e m s 8 8 l l 4 % < ) X.e 1 c m G G b l V s t l b b 8 r D J Z Z b K X.{ G p 9 8 6 3 +         ",
"        . X O O O O O O O O O O O O O O O O O O O O O O O O o X X X . . O O . . X O O X o O O O O O X X O X X O X . X O O O O O O O O X X X X X . .         ",
"                o                               .                                                                                                           ",
"                                                                                                                                                            ",
"                                                                                                                                                            "
};
