/* XPM */
static char *_15e6aeca1b546fddddfce7f5221e31f[] = {
/* columns rows colors chars-per-pixel */
"34 17 64 1 ",
"  c #020101",
". c #0A0203",
"X c #00040A",
"o c #0A0309",
"O c #170C09",
"+ c #35160A",
"@ c #3B1609",
"# c #22191A",
"$ c #331A11",
"% c #2C2524",
"& c #55240F",
"* c #5B220A",
"= c #512314",
"- c #5C2510",
"; c #422D26",
": c #5E2F20",
"> c #44322D",
", c #4A3936",
"< c #4A3A3A",
"1 c #704E48",
"2 c #735654",
"3 c #AD4D14",
"4 c #A94B1E",
"5 c #B24B14",
"6 c #BC4E11",
"7 c #B24919",
"8 c #A84826",
"9 c #AC5835",
"0 c #C64F06",
"q c #CC4B05",
"w c #C64D0C",
"e c #CA4B0B",
"r c #D14904",
"t c #C35008",
"y c #C54C12",
"u c #C94C10",
"i c #C55C27",
"p c #CA5925",
"a c #C35B2B",
"s c #C85A28",
"d c #CC663B",
"f c #C9693A",
"g c #8E706C",
"h c #937473",
"j c #9C7674",
"k c #997873",
"l c #9A7879",
"z c #CB6740",
"x c #CD724F",
"c c #DE9D83",
"v c #F1A98C",
"b c #F4AF96",
"n c #F5AE9A",
"m c #F6B196",
"M c #F6B19B",
"N c #ECB5A4",
"B c #FDBDAD",
"V c #EFBBB0",
"C c #F2BEB4",
"Z c #F9BFB5",
"A c #F2BEB9",
"S c #FFC3B5",
"D c #F3C1B9",
"F c #FFC4BB",
/* pixels */
"  .......................ooX..oo. ",
" %hkjjlllljjjjjljjjjlkjkkkkkkklg# ",
" <DFFFFFFFFFFFFFFFFFFFFFFFFFFFFV> ",
" ,CSSSSSFSZZSSSSSSSSSSSSSSSSSSSN> ",
" ,ASSBnvvvvvvvvvvvvvvvvvvvvvvvvc; ",
" ,AFSMxappssiiiiaaaaiiiiiiiaiia9$ ",
" ,AFSbdurqeeeqqeqqeeqweeqqeqqq64+ ",
" ,AFSbderqueqeeeeqqqqqeeeqeeeqe3+ ",
" ,CSSMdueuyy0uwwwwueweuwuwwwwer5+ ",
" ,AFSmzyreuueueeeeweeweeeeeeeee7@ ",
" ,CSSmfyq0uuuwuuwuuwuwuwyeyuwuu7@.",
" ,CBBbfye0yy0tt0tttwtt0wttttttt5@.",
" <AFZMzyeeuueeeeeeeeeeeeeeeeee03+ ",
" <AFSMfyqqqwuuwwuuuueweuueuwuee7@ ",
" ,VCZnz6wy66666666666666666666y8+ ",
" #2221:&**&**************-**---=O ",
"oX     ...   ..  ..   .       ..XX"
};
