/* XPM */
static char *aa66f712185447cfa1e8d6e6cee7a248[] = {
/* columns rows colors chars-per-pixel */
"78 39 107 2 ",
"   c #050605",
".  c #0D0501",
"X  c #060805",
"o  c #080905",
"O  c #050709",
"+  c #080708",
"@  c #070909",
"#  c #080909",
"$  c #100600",
"%  c #130B05",
"&  c #110D0C",
"*  c #1A130E",
"=  c #1A1410",
"-  c #1F1916",
";  c #271E0F",
":  c #281E0F",
">  c #261D11",
",  c #291E10",
"<  c #261F1B",
"1  c #3D230F",
"2  c #292114",
"3  c #3A2410",
"4  c #36291E",
"5  c #3B3630",
"6  c #432C13",
"7  c #473216",
"8  c #493216",
"9  c #47331A",
"0  c #4A341A",
"q  c #49381E",
"w  c #51371A",
"e  c #543A1C",
"r  c #5C3E1E",
"t  c #453626",
"y  c #40392E",
"u  c #4B3A2B",
"i  c #583E21",
"p  c #463D32",
"a  c #483E33",
"s  c #5D4325",
"d  c #544029",
"f  c #494134",
"g  c #644625",
"h  c #664827",
"j  c #684826",
"k  c #664A2B",
"l  c #6A4E2E",
"z  c #704F2F",
"x  c #6F512F",
"c  c #70512F",
"v  c #694E30",
"b  c #6F5231",
"n  c #6D5438",
"m  c #705230",
"M  c #846342",
"N  c #8B6645",
"B  c #886B4E",
"V  c #97704E",
"C  c #8C6D54",
"Z  c #8E765F",
"A  c #977352",
"S  c #9A7352",
"D  c #9D7957",
"F  c #94755C",
"G  c #9F7C5A",
"H  c #A07757",
"J  c #A07B5A",
"K  c #9F7F61",
"L  c #AA8462",
"P  c #B28E6D",
"I  c #AC937A",
"U  c #BF9676",
"Y  c #B3937C",
"T  c #B1987A",
"R  c #BC9C7C",
"E  c #C09877",
"W  c #C49C7C",
"Q  c #C3A17F",
"!  c #C8A07F",
"~  c #BEA68D",
"^  c #BFB4A8",
"/  c #C79E80",
"(  c #C3A181",
")  c #C9A180",
"_  c #D6AE8D",
"`  c #CAB69F",
"'  c #CBB89F",
"]  c #DAB292",
"[  c #D7B89C",
"{  c #E7BE9D",
"}  c #E8BF9E",
"|  c #CEBCA2",
" . c #D6BEA2",
".. c #E7BEA0",
"X. c #E8BFA1",
"o. c #E9C19E",
"O. c #E7C1A2",
"+. c #EAC3A4",
"@. c #EFC7A8",
"#. c #EFCAAB",
"$. c #F1C8A5",
"%. c #F1CBAA",
"&. c #E7CFB6",
"*. c #E7D0B5",
"=. c #E8D0B6",
"-. c #E9D4B9",
";. c #F1D1B1",
/* pixels */
"@ @ @ @ @ @ @ X X @ + + @ + @ @ o o o o @ @ @ @ O O @ @ O + X O + + O + + + @ @ O O o o O o o o o O o o + o + + + + + + + @ @ @ + + @ + @ @ O @ O O @ + # @ ",
"@ @ @ o @ @ X X X X X O X X X X o o o @ X X @ @ X O X X O O X X X X X O X X + @     o o O o   o O o   O o + O + X @ O O + X X X X X X X X X X X O O @ @ @ o ",
"O @ @ @ & * * * * * * * * * * * = = = = * * * = * * * * = * = = * * * * * * * - - < = < - - - - - - - - - - - - > < < < < < < < < < < < < < < < < o @ @ @ # ",
"@ @ @ O p Z B C B C C C C C C C C A B B C C C B C C B C C C C C C C C C C B F Y Y Y Y Y Y Y Y Y Y Y Y Y Y Y Y Y I I ~ ` ` ` ` ` ` ` ` ' ` ` ` ' ^ 5 X X @ o ",
"@ @ @ O u K A S D S D S S D S D A D S D S D D D D D S S S S S S H S S S S S J / ! ! W / / / / / ! W ! ! W ! ! / W Q ] $.+.+.+.+.+.$.+.+.O.@.@.+.-.f + @ @ @ ",
"+ + @   u G V A V V V A V V V V V A V V V V V A A V A A V S S V V S S V S V H U E W E E E E E E E E E E E E E E U U _ o.o.o.O.o.} } o.{ } { { O.*.p + @ X @ ",
"+ @ @ O u K A A S A A A A A S S A A A A V D A A A A A A S S S S S S V S S V J W ) ! ! ) / / / ) ! ! ) / ! ! ! ! ! W ] %.%.%.#.#.%.%.%.$.+.} o.o.*.p + @ X o ",
"+ @ @ + t B M M M M M M M M M M M M M M M M M M M M M M M M N M M M M M M M N J J J J J J J J J J J J J J J J J G D L P P P P P P P P L _ o.o.o.*.f + + X X ",
"@ @ O   4 n x x c m m m m m m m m m m x x x x x c b m m m m m m z m m m m m c z z c c z m m m z m m c m m b b c c m x j j j h h h h h r W @.o.O.&.a @ # + @ ",
"@ @ @   4 b m m m c m m m m m m m m m m m m m m b c m m c m m m z m c c c m c m m m m m m b m m m m m m m m m c m m m m m b b b m m b h Q #.....&.a   @ @ @ ",
"@ @ O X 4 n x x m m m m m m m m m m m m m m m m m c m m m m m m m m c m c c m m b b m m m z m m m m m b m m b c m m m m m m m m c m x g ( #.o...&.a O o o @ ",
"@ @ O   4 n x x m m m m m m m m c m m m m m m m b c m c m m m m m m k z l z m k b v z z m m m m m m m m m m c c m m m m m c b m x m x g ( #...O.=.a O @ # @ ",
"@ X @ X 4 n m x m m m m m m m m c b m c m m b c m c c b b b m m m m e w w w w w w w w r z z m m m m m m m m c c c m m c c m m m m m m g ) #...X.=.a o + o @ ",
"@ @ O X 4 n m m m m x m m m m m c m m m m m m b m m m m c c m m m z 0 7 7 8 8 9 9 9 7 e m m m c m c c m m c c c b m m b b c b c m m m g ) #.....&.a @ @ # @ ",
"@ @ @ X 4 n x m m m x m m m m m m m c m m c c c m m m c m c m m m l 0 8 8 9 9 8 7 7 7 e b z m c m m m m m b m x c m m c b c c m m m m g / #.....&.a O + o @ ",
"@ @ O   4 b m m m m m m m m x m m m b b c c c m m m m b m m m b b l w 8 8 8 8 7 7 7 7 e m z c c m m m m c m m m m m m m c m m m m m m g ~ #.....&.a O @ # @ ",
"@ @ @ X 4 n x x m m m m m m m m m x m m m m m x m c b m m m m c b x g s g s s g s s s g m x c x m m m m m m x m x m m m m m c b m m m g Q #.....=.a @ + # @ ",
"X @ O   4 n x m z m m m m m m m m c m m x m m c m m m m c m m m b c b b b b c b b c b c m c c c m m m m m m m m m m m m m m m c m m m g Q #.....=.a @ @ o @ ",
"@ @ @ X 4 n x x m m m m m m m l x x x x m m m m c b m b c c b m c b c c c b m m c c c c x c m m m m m m m x x m m m c m m x x x z m m g Q #.{ ..&.a   @ # @ ",
"@ @ @ X 4 b x x m m m m m m m m m m m m m m m m c m m c c b m m c c b c b c m m c c c c c c b m z m m m m m m m x x m m m m m m m m m g ( #...O.&.a O + # + ",
"@ @ @   4 n b b m m z m m n z z x x x m x x x k c m m c c c c m c c b b b m c m b b b b m c b m m m m m m m m m c x l x x b x x c z z g ( #.} O.&.a O + o + ",
"@ @ @ O 4 n b m m m m m m m i 0 8 w 8 0 w 0 0 8 l m m m c m m c b c c b c c b m b c b c m m c m m m m m m m m m c x g w 8 8 8 8 0 0 8 6 T #.} O.=.a O @ + @ ",
"@ @ @ O 4 b x c m m m m m l i 9 9 9 9 9 0 0 0 8 k m c b c c m b m m b b m c m m b c b m c m m c m m m m m x m m c m s 9 9 9 7 9 9 7 9 3 T ;.} ..=.a O + # @ ",
"@ @ @ O 4 b x c m x m m m m i 0 9 9 9 9 9 9 0 8 k m b c b c m m m b c b m m m m m m m m m m m m m m m m m m m m m m s 7 9 9 0 8 9 9 9 3 Y #...O.=.a O + o @ ",
"X @ @ X 4 n m x m m x c m m e 8 8 8 7 8 7 8 0 6 k b m m m m m c m m b c b b c b m m c m m b m m m c m m m m c m m m s 8 7 7 7 7 7 7 7 1 T %.{ O.*.f + @ @ + ",
"@ @ O X 4 n m x x x x x m b k s s s s s s s s g z m m m m m m m c c c c c c c c x x x m m c m m m x l x m m m m m m v g s s s s s s s e R %.{ O.&.u X @ @ + ",
"@ + @ X 4 n x m c m c c m m m m m m m m b m m m m c m m m m m b c c b c c b c b m m b b m m m m c c m m m m m m m b b m m m b b m m c l Q $.o.{ *.p X + @ @ ",
"@ O O   4 n m m c m m m m c c c m c c c m m m m c m m m m c m b c b c b b c b c b c b b m m m m c b m m m m c m m m m b m c c c c c c g Q %.{ o.*.p + @ + @ ",
"@ @ @   4 n n m m m b b b m b m m m c c m m m m m m b b b b b b b b b c b b b b b b b b b b m m b b b b m b b n m m m m m m m m m m m k ~ ;.+.+.-.f O @ X @ ",
"@ @ + X 4 n x k k b v x v x v x z z l z l l v m v v k x k x v k x v v l x v v b v x b v v v k x x k k b l m v v b v l z z v v v v v b k I  .[ [ | y   @ @ @ ",
"@ @ @ X ; q 0 w 0 0 0 0 0 0 w 8 0 0 w 0 0 0 w 0 0 0 w 0 0 0 w w 0 q q w w 0 0 0 8 0 w w 0 0 0 0 0 0 q 0 0 0 0 0 0 0 w 0 0 w 0 0 0 0 w w w e e e d * O O + @ ",
"@ X @ X ; q 8 8 9 9 8 0 9 9 9 7 7 7 8 7 8 8 7 7 9 9 7 7 9 9 9 7 7 7 7 7 8 7 8 8 7 7 7 9 9 9 0 8 0 7 7 0 7 0 8 9 9 9 7 9 7 9 9 9 7 7 7 9 9 6 6 7 9 * O @ @ @ ",
"@ @ @ @ ; q 7 8 9 9 9 9 9 9 0 8 9 9 8 7 9 9 7 7 7 9 9 9 0 7 7 7 8 8 7 7 7 7 q 7 9 7 7 9 9 9 9 9 9 9 9 9 9 0 9 0 9 9 9 9 0 9 9 9 9 9 9 9 9 9 9 9 9 * X o @ @ ",
"@ @ @ . ; q 7 9 q q 0 0 0 9 q 9 9 0 0 0 9 q 0 0 q 9 8 0 9 q 9 9 7 q q q q 7 9 9 q 9 q 9 9 0 0 0 0 q t 0 9 9 q 9 q 0 0 9 q 9 9 0 q 0 0 q q 9 9 q t * X o + @ ",
"@ o @ X * ; ; ; ; ; : : ; ; ; : , , : : ; ; : : ; ; ; ; ; ; ; ; ; ; ; ; ; ; ; > ; ; ; ; > : ; : : : : : ; ; ; ; ; ; ; ; ; ; ; ; ; ; ; ; ; : : ; 2 % O @ + + ",
"o o @ @ + X X X . O .     O .     o       O     X + X X X X X X o o X o X X X X X X X X O o X         X X X X X + X X X X + . O X X X X X   . X @ + @ + o + ",
"@ @ @ @ @ O O @ @ @ @ O + @ @ O o + @ X @ @ O O @ @ @ @ @ @ o X # # @ o @ @ @ X @ @ @ @ @ @ @ @ o + + @ @ @ @ @ @ @ + O @ @ @ @ O @ @ O @ @ @ + @ @ @ @ @ X ",
"@ O O O O O O O O O O O O   O O O X X X O   O O + O X @ @ @ @ X @ @ @ @ @ @ @ X + + O @ @ @ @ @ + + + + O @ + + @ @ O + + O O @ O + + + @ + + + O @ O @ X @ ",
". . . . $ $ $ % . . . . . . . . . .   . . . . . . . X   % O @ @ @ o @ @ o @ o % $ . % . . . $ $ . . . % . . . % . . % $ % . . . $ $ % . $ . % $ . $ . . $   "
};
