/* XPM */
static char *_506e25d51db4fd1b3bf5cde7388adb0[] = {
/* columns rows colors chars-per-pixel */
"34 17 113 2 ",
"   c #070504",
".  c #050707",
"X  c #060707",
"o  c #090604",
"O  c #080605",
"+  c #070806",
"@  c #0A0A07",
"#  c #050808",
"$  c #070908",
"%  c #070809",
"&  c #090B09",
"*  c #0B0A08",
"=  c #0D0C0B",
"-  c #0D0D0B",
";  c #110F08",
":  c #110E0A",
">  c #100F0B",
",  c #12100B",
"<  c #14120E",
"1  c #15120E",
"2  c #141311",
"3  c #151512",
"4  c #1C1814",
"5  c #1C1B17",
"6  c #1E1B19",
"7  c #1E1C19",
"8  c #352715",
"9  c #392A15",
"0  c #3E2D17",
"q  c #3F2E17",
"w  c #402E17",
"e  c #402E18",
"r  c #47331B",
"t  c #483218",
"y  c #493418",
"u  c #4B3419",
"i  c #4E371B",
"p  c #4F381D",
"a  c #50391B",
"s  c #50381C",
"d  c #513A1D",
"f  c #553C1F",
"g  c #573D20",
"h  c #573D21",
"j  c #543D22",
"k  c #5B4024",
"l  c #5E4425",
"z  c #5E472E",
"x  c #5D4A38",
"c  c #614627",
"v  c #664A2A",
"b  c #674A2B",
"n  c #61492E",
"m  c #694C2C",
"M  c #6A4C2C",
"N  c #6B4F2E",
"B  c #6C4E2D",
"V  c #6C4F2F",
"C  c #6E502E",
"Z  c #6F502F",
"A  c #70522F",
"S  c #6B4F30",
"D  c #6F5130",
"F  c #69503B",
"G  c #6D5338",
"H  c #69503C",
"J  c #68513C",
"K  c #6A513C",
"L  c #705130",
"P  c #705330",
"I  c #715330",
"U  c #705231",
"Y  c #72583F",
"T  c #7C5C3B",
"R  c #7D5C3B",
"E  c #7C5D3B",
"W  c #7D5D3B",
"Q  c #6D5541",
"!  c #765C41",
"~  c #805E3D",
"^  c #886A4B",
"/  c #8A6B4B",
"(  c #8C6948",
")  c #8E6B49",
"_  c #896A4D",
"`  c #8E6E4D",
"'  c #836A56",
"]  c #866C5A",
"[  c #947352",
"{  c #967553",
"}  c #9A7351",
"|  c #9A7352",
" . c #9A7452",
".. c #A17958",
"X. c #807265",
"o. c #907A67",
"O. c #9B8773",
"+. c #9B8774",
"@. c #9D8875",
"#. c #AB8766",
"$. c #C19878",
"%. c #C59D7C",
"&. c #B69E85",
"*. c #D7B08F",
"=. c #C3A890",
"-. c #C6AB91",
";. c #D7B696",
":. c #E8C09F",
">. c #E5C0A0",
",. c #E7C0A1",
"<. c #EBC4A2",
"1. c #EBC4A3",
"2. c #EEC5A4",
/* pixels */
"$ $ & & & * * * & & & & & & * * * & = & = = * = = = - - - - - & $ # ",
"$ 2 x K F F K K K J K K F K F F Y ' ] ' ] ] ] ] ' o.+.+.O.O.@.X.3 + ",
"$ 4 _ | } | | |  . . . .| | | } ..$.%.%.%.%.%.%.%.*.<.1.1.1.2.-.7 + ",
"# 2 G W T W W W T W W W T T T T ~ ( ) ` ( ` ( ) ( [ [  .[ #.:.-.7 . ",
"+ 1 n U C U D P A U C A U C C C Z V B U A B A Z A C C B B ` :.=.7 + ",
"$ 1 n A C U P D U A U U U C B f g g g B U U A U U U U U N ` :.=.6 $ ",
"$ 1 n U A U U U A U A U U U v i t t i M A A U A A U D P B ` >.=.7 $ ",
"$ < n A U A U A U A U A U A C M M v M M A U A U U A P P C ` >.=.5 + ",
"# 1 n D U A B A B U U A U A U P P A A A A U A U A C B B N ` :.=.7 + ",
"# < n D U U h f d d l Z A U A U U A U U U A U U U c d d i ! >.=.7 + ",
"$ 1 n U U B g u u u h P U A U U A U U A A U U U U l u i u Y >.=.6 . ",
"$ 1 n A A U B M B B U U P U A D U A A U U A D D U C N v v ^ >.-.6 + ",
"# 1 z B B B M Z B B B C B N C B C B C S B B S S S B A B m ^ ;.&.5 & ",
"& > t a p p a a p p i i p p i i d i p p s s p p p p s s i g x j - $ ",
"& > 9 w q e w w q w q w q q q q q q q q w w e q q e w w w w q 8 = o ",
". & > > > , > > > > > > , ; , ; > , > , ; > > , > , ; > > > > > . o ",
"o & . o     o   o . # + + $ o o . & o o & o o o & o o o & o o o o o "
};
